<svg version="1.1" xmlns="http://www.w3.org/2000/svg" viewBox="0 0 171.39987474470274 129.63657127800093" width="171.39987474470274" height="129.63657127800093">
  <!-- svg-source:excalidraw -->
  
  <defs>
    <style>
      @font-face {
        font-family: "Virgil";
        src: url("https://excalidraw.com/Virgil.woff2");
      }
      @font-face {
        font-family: "Cascadia";
        src: url("https://excalidraw.com/Cascadia.woff2");
      }
    </style>
  </defs>
  <g><g stroke-opacity="0.5" fill-opacity="0.5" transform="translate(45.821936349408816 67.97166846173798) rotate(340.322182119307 9.834058089674443 -0.04679490523278673)"><path d="M0 0 C4.932534661275642 -0.02347123536662683, 9.865069322551284 -0.04694247073325366, 19.668116179348885 -0.09358981046557346 M0 0 C4.671874487569728 -0.02223089612769787, 9.343748975139455 -0.04446179225539574, 19.668116179348885 -0.09358981046557346" stroke="#e67700" stroke-width="2" fill="none"></path></g></g><g><g stroke-opacity="0.5" fill-opacity="0.5" transform="translate(116.8282182470009 117.85432952093117) rotate(340.322182119307 4.33296001612797 -5.848107538945499)"><path d="M0 0 C1.7771524407457622 -2.3985863123352975, 3.5543048814915243 -4.797172624670595, 8.665920032255986 -11.696215077891052 M0 0 C2.3646966692410447 -3.1915827441827536, 4.729393338482089 -6.383165488365507, 8.665920032255986 -11.696215077891052" stroke="#e67700" stroke-width="2" fill="none"></path></g></g><g><g stroke-opacity="0.5" fill-opacity="0.5" transform="translate(123.37232907397083 102.26679071592162) rotate(340.322182119307 7.763394354619265 -0.3352313001216771)"><path d="M0 0 C4.866727346315109 -0.21015025916751162, 9.733454692630218 -0.42030051833502324, 15.526788709238575 -0.6704626002433157 M0 0 C4.01454160732454 -0.1733520082765257, 8.02908321464908 -0.3467040165530514, 15.526788709238575 -0.6704626002433157" stroke="#e67700" stroke-width="2" fill="none"></path></g></g><g><g stroke-opacity="0.5" fill-opacity="0.5" transform="translate(140.04703387096242 96.88796806921391) rotate(340.322182119307 4.540797667078721 6.904186347568952)"><path d="M0 0 C2.6834680481541575 4.080156135677948, 5.366936096308315 8.160312271355895, 9.08159533415746 13.808372695137868 M0 0 C3.160861873175508 4.806023300608592, 6.321723746351016 9.612046601217184, 9.08159533415746 13.808372695137868" stroke="#e67700" stroke-width="2" fill="none"></path></g></g><g><g stroke-opacity="0.5" fill-opacity="0.5" transform="translate(123.58912799246491 27.878885115920525) rotate(340.322182119307 -3.3768781353250006 6.753756270650058)"><path d="M0 0 C-2.1506350190242247 4.301270038048449, -4.301270038048449 8.602540076096899, -6.753756270650047 13.507512541300095 M0 0 C-2.624599023806747 5.249198047613494, -5.249198047613494 10.498396095226989, -6.753756270650047 13.507512541300095" stroke="#e67700" stroke-width="2" fill="none"></path></g></g><g><g stroke-opacity="0.5" fill-opacity="0.5" transform="translate(145.0206890837485 49.369456602950095) rotate(340.322182119307 -6.847558441075762 0)"><path d="M0 0 C-5.406295665918877 0, -10.812591331837753 0, -13.695116882151495 0 M0 0 C-4.781197483207696 0, -9.562394966415392 0, -13.695116882151495 0" stroke="#e67700" stroke-width="2" fill="none"></path></g></g><g><g stroke-opacity="0.5" fill-opacity="0.5" transform="translate(129.80274285769292 53.28185051343189) rotate(340.322182119307 -4.408702010007687 -6.097141077670187)"><path d="M0 0 C-2.6441535541597436 -3.6568081068166673, -5.288307108319487 -7.313616213633335, -8.817404020015344 -12.194282155340371 M0 0 C-1.9791596353290324 -2.737135665880577, -3.9583192706580648 -5.474271331761154, -8.817404020015344 -12.194282155340371" stroke="#e67700" stroke-width="2" fill="none"></path></g></g><g><g stroke-opacity="0.5" fill-opacity="0.5" transform="translate(135.94131452301326 52.78324475879231) rotate(340.322182119307 -4.850306035414974 9.04240042843486)"><path d="M0 0 C-2.474870985011784 4.613889163238528, -4.949741970023568 9.227778326477056, -9.700612070829948 18.084800856869734 M0 0 C-3.266572094663161 6.089853442777331, -6.533144189326322 12.179706885554662, -9.700612070829948 18.084800856869734" stroke="#e67700" stroke-width="2" fill="none"></path></g></g><g><g stroke-opacity="0.5" fill-opacity="0.5" transform="translate(131.42720782810466 69.71286076344143) rotate(340.322182119307 4.937070454340528 5.859798189608284)"><path d="M0 0 C3.4606045518164854 4.107384019577053, 6.921209103632971 8.214768039154105, 9.8741409086811 11.719596379216549 M0 0 C3.1277038721301103 3.7122649265467818, 6.2554077442602205 7.4245298530935635, 9.8741409086811 11.719596379216549" stroke="#e67700" stroke-width="2" fill="none"></path></g></g><g><g stroke-opacity="0.5" fill-opacity="0.5" transform="translate(143.38867890575193 76.82335865983077) rotate(340.322182119307 9.325109709050423 -0.2804802429698725)"><path d="M0 0 C3.8737509534266237 -0.11651451216358782, 7.747501906853247 -0.23302902432717565, 18.65021941810089 -0.5609604859397833 M0 0 C7.090431256928378 -0.21326568198703727, 14.180862513856756 -0.42653136397407454, 18.65021941810089 -0.5609604859397833" stroke="#e67700" stroke-width="2" fill="none"></path></g></g><g><g stroke-opacity="0.5" fill-opacity="0.5" transform="translate(177.40704353658703 80.91600863799772) rotate(340.322182119307 -36.306490215557744 7.846210179560501)"><path d="M-30.814313858078265 0 C-30.814313858078265 0, -30.814313858078265 0, -30.814313858078265 0 M-30.814313858078265 0 C-30.814313858078265 0, -30.814313858078265 0, -30.814313858078265 0 M-30.814313858078265 0 C-33.83001465734376 4.308277952051183, -36.84571545660926 8.616555904102366, -41.79866657303728 15.692420359121034 M-30.814313858078265 0 C-34.65136151217954 5.481667084864831, -38.48840916628082 10.963334169729661, -41.79866657303728 15.692420359121034" stroke="#e67700" stroke-width="2" fill="none"></path></g></g><g><g stroke-opacity="0.5" fill-opacity="0.5" transform="translate(129.5381504576435 74.06584573094437) rotate(340.322182119307 -8.361771347650915 0.3752061755235445)"><path d="M0 0 C-3.9724339508426714 0.1782495225290108, -7.944867901685343 0.3564990450580216, -16.723542695301802 0.7504123510470757 M0 0 C-4.720983197569358 0.21183813532147228, -9.441966395138715 0.42367627064294455, -16.723542695301802 0.7504123510470757" stroke="#e67700" stroke-width="2" fill="none"></path></g></g><g><g stroke-opacity="0.5" fill-opacity="0.5" transform="translate(118.61788346390244 45.55464825392244) rotate(340.322182119307 -7.504173634055633 0)"><path d="M0 0 C-4.095374601152007 0, -8.190749202304014 0, -15.008347268111226 0 M0 0 C-4.395425257250082 0, -8.790850514500164 0, -15.008347268111226 0" stroke="#e67700" stroke-width="2" fill="none"></path></g></g><g><g stroke-opacity="0.5" fill-opacity="0.5" transform="translate(87.78121817673559 42.65224013571378) rotate(340.322182119307 -10.047211009555156 0.5234512882072124)"><path d="M0 0 C-5.195529789289758 0.2706827554966517, -10.391059578579515 0.5413655109933034, -20.094422019110347 1.0469025764144324 M0 0 C-6.119502075177246 0.31882093860593486, -12.239004150354493 0.6376418772118697, -20.094422019110347 1.0469025764144324" stroke="#e67700" stroke-width="2" fill="none"></path></g></g><g><g stroke-opacity="0.5" fill-opacity="0.5" transform="translate(72.33918849444876 48.0464750073246) rotate(340.322182119307 -5.079995927221319 7.968689983828995)"><path d="M0 0 C-3.536199280284366 5.547027239653457, -7.072398560568732 11.094054479306914, -10.159991854442637 15.93737996765796 M0 0 C-3.276869826230869 5.14023242079259, -6.553739652461738 10.28046484158518, -10.159991854442637 15.93737996765796" stroke="#e67700" stroke-width="2" fill="none"></path></g></g><g><g stroke-opacity="0.5" fill-opacity="0.5" transform="translate(66.9845135411972 62.2951962296072) rotate(340.322182119307 5.640995598850282 6.851209675184805)"><path d="M0 0 C4.384331014840011 5.324941411797415, 8.768662029680023 10.64988282359483, 11.281991197700563 13.702419350369667 M0 0 C3.293761410574212 4.000401994370607, 6.587522821148424 8.000803988741215, 11.281991197700563 13.702419350369667" stroke="#e67700" stroke-width="2" fill="none"></path></g></g><g><g stroke-opacity="0.5" fill-opacity="0.5" transform="translate(80.27634269921441 71.53797287865893) rotate(340.322182119307 9.705213901385093 -0.13027132753535398)"><path d="M0 0 C6.776509419904279 -0.09095985798529245, 13.553018839808558 -0.1819197159705849, 19.410427802770236 -0.26054265507074176 M0 0 C4.8591405603831985 -0.06522336322662019, 9.718281120766397 -0.13044672645324037, 19.410427802770236 -0.26054265507074176" stroke="#e67700" stroke-width="2" fill="none"></path></g></g><g><g stroke-opacity="0.5" fill-opacity="0.5" transform="translate(95.15752430751422 65.66447528945014) rotate(340.322182119307 6.117290743279739 -7.786249466246431)"><path d="M0 0 C2.7461812772077385 -3.495412168755389, 5.492362554415477 -6.990824337510778, 12.234581486559478 -15.572498932492863 M0 0 C4.871407171501163 -6.200455901272742, 9.742814343002326 -12.400911802545483, 12.234581486559478 -15.572498932492863" stroke="#e67700" stroke-width="2" fill="none"></path></g></g><g><g stroke-opacity="0.5" fill-opacity="0.5" transform="translate(103.41623696802185 52.056207510926015) rotate(340.322182119307 -7.01985863950415 -7.41949491365375)"><path d="M0 0 C-4.727717008545932 -4.996863056572674, -9.455434017091864 -9.993726113145348, -14.0397172790083 -14.838989827307472 M0 0 C-4.513560833107874 -4.770515100582716, -9.027121666215749 -9.541030201165432, -14.0397172790083 -14.838989827307472" stroke="#e67700" stroke-width="2" fill="none"></path></g></g><g><g stroke-opacity="0.5" fill-opacity="0.5" transform="translate(66.65370718005101 49.06561797478116) rotate(340.322182119307 -5.6998675914042 -6.550174174005491)"><path d="M0 0 C-3.610946633461603 -4.149627864668595, -7.221893266923206 -8.29925572933719, -11.399735182808346 -13.10034834801096 M0 0 C-2.398779804406385 -2.7566299167447563, -4.79755960881277 -5.513259833489513, -11.399735182808346 -13.10034834801096" stroke="#e67700" stroke-width="2" fill="none"></path></g></g><g><g stroke-opacity="0.5" fill-opacity="0.5" transform="translate(84.20232808039532 38.1291032599612) rotate(340.322182119307 4.759457240629558 -7.222770875572422)"><path d="M0 0 C3.6188962315608033 -5.4918989669458185, 7.237792463121607 -10.983797933891637, 9.518914481259062 -14.445541751144818 M0 0 C3.6654406248221405 -5.56253296386449, 7.330881249644281 -11.12506592772898, 9.518914481259062 -14.445541751144818" stroke="#e67700" stroke-width="2" fill="none"></path></g></g><g><g stroke-opacity="0.5" fill-opacity="0.5" transform="translate(84.28124394974952 75.75541027979284) rotate(340.322182119307 -6.769265755156141 8.128548681224686)"><path d="M0 0 C-3.317862205392742 3.984095975784049, -6.635724410785484 7.968191951568098, -13.538531510312282 16.257097362449343 M0 0 C-3.716938208013673 4.463307286455653, -7.433876416027346 8.926614572911307, -13.538531510312282 16.257097362449343" stroke="#e67700" stroke-width="2" fill="none"></path></g></g><g><g stroke-opacity="0.5" fill-opacity="0.5" transform="translate(75.37256042904369 96.23751520867722) rotate(340.322182119307 -8.467636289799088 -0.32567831883841336)"><path d="M0 0 C-4.780753620882086 -0.18387513926469545, -9.561507241764172 -0.3677502785293909, -16.935272579598216 -0.6513566376768539 M0 0 C-6.250666616145367 -0.24041025446712927, -12.501333232290733 -0.48082050893425854, -16.935272579598216 -0.6513566376768539" stroke="#e67700" stroke-width="2" fill="none"></path></g></g><g><g stroke-opacity="0.5" fill-opacity="0.5" transform="translate(111.41438622588089 80.11529892431395) rotate(340.322182119307 -4.993734222189232 -7.382041893671044)"><path d="M0 0 C-2.924983695552095 -4.323888941250923, -5.84996739110419 -8.647777882501845, -9.987468444378436 -14.764083787342033 M0 0 C-2.196733134621731 -3.2473446337886456, -4.393466269243462 -6.494689267577291, -9.987468444378436 -14.764083787342033" stroke="#e67700" stroke-width="2" fill="none"></path></g></g><g><g stroke-opacity="0.5" fill-opacity="0.5" transform="translate(116.3585463776883 84.45599720030407) rotate(340.322182119307 -20.840266640940968 8.012065072530504)"><path d="M0 0 C-2.9797642344275537 4.879946165276801, -5.959528468855107 9.759892330553601, -9.784560787538297 16.02413014506103 M0 0 C-3.4780351776989646 5.695962194596416, -6.956070355397929 11.391924389192832, -9.784560787538297 16.02413014506103 M-9.784560787538297 16.02413014506103 C-15.344386183825556 15.97167896207719, -20.904211580112815 15.919227779093351, -29.67062091778564 15.83652580420965 M-9.784560787538297 16.02413014506103 C-15.18665090585409 15.973167030737299, -20.588741024169884 15.922203916413567, -29.67062091778564 15.83652580420965 M-29.67062091778564 15.83652580420965 C-32.93442891590809 11.89160838194191, -36.198236914030545 7.946690959674172, -41.680533281881935 1.3203187992978727 M-29.67062091778564 15.83652580420965 C-32.646399694884714 12.239745126747666, -35.62217847198378 8.642964449285682, -41.680533281881935 1.3203187992978727" stroke="#e67700" stroke-width="2" fill="none"></path></g></g><g><g stroke-opacity="0.5" fill-opacity="0.5" transform="translate(92.85932628333535 103.7905651311396) rotate(340.322182119307 -4.217222745463687 7.4299187856063895)"><path d="M0 0 C-2.720334851265019 4.792696102261816, -5.440669702530038 9.585392204523632, -8.434445490927404 14.8598375712128 M0 0 C-2.4008500296799853 4.229826550217382, -4.801700059359971 8.459653100434764, -8.434445490927404 14.8598375712128" stroke="#e67700" stroke-width="2" fill="none"></path></g></g><g><g stroke-opacity="0.5" fill-opacity="0.5" transform="translate(110.78449746853698 93.45428079017256) rotate(340.322182119307 5.290814451830499 6.092155690676748)"><path d="M0 0 C3.0892916270843114 3.557192514961534, 6.178583254168623 7.114385029923068, 10.581628903660983 12.184311381353508 M0 0 C2.6982573336867124 3.1069325753131594, 5.396514667373425 6.213865150626319, 10.581628903660983 12.184311381353508" stroke="#e67700" stroke-width="2" fill="none"></path></g></g><g><g transform="translate(66.17036237217803 27.49999202847073) rotate(0 0.5522291261638657 2.8646858402491375)" fill-rule="evenodd"><path d="M0 0 L1.1044582523277704 3.382393839126512 L0.000004634485963234812 5.729371680498247" stroke="none" stroke-width="0" fill="#000" fill-rule="evenodd"></path><path d="M0 0 C0.27648632712617893 0.8467369839496384, 0.5529726542523579 1.6934739678992767, 1.1044582523277704 3.382393839126512 M0 0 C0.26534551538243856 0.8126183444035302, 0.5306910307648771 1.6252366888070604, 1.1044582523277704 3.382393839126512 M1.1044582523277704 3.382393839126512 C0.68866820929755 4.265952914755073, 0.27287816626732975 5.149511990383634, 0.000004634485963234812 5.729371680498247 M1.1044582523277704 3.382393839126512 C0.7364778105932761 4.164356910148605, 0.3684973688587817 4.946319981170698, 0.000004634485963234812 5.729371680498247 M0.000004634485963234812 5.729371680498247 C0.0000033974229020661543 4.20005556521043, 0.0000021603598408974967 2.6707394499226136, 0 0 M0.000004634485963234812 5.729371680498247 C0.0000034570848562387756 4.273812506832756, 0.0000022796837492427387 2.8182533331672652, 0 0" stroke="#000000" stroke-width="1" fill="none"></path></g></g><g><g transform="translate(126.60156660727739 97.74245656937865) rotate(336.66981356349436 -64.42813581714148 -81.67745525987385)"><path d="M-61.45151090467183 -77.83859148131589 C-61.316905117928044 -78.6910941279341, -60.53918318501788 -81.60755049772595, -60.64387618420914 -82.95360736102515 C-60.7485691834004 -84.29966422432435, -61.301946966909185 -85.34659773072207, -62.07966889981936 -85.91493266111111 C-62.857390832729536 -86.48326759150015, -64.36796777653299 -86.45335430187833, -65.31020778167017 -86.36361694335938 C-66.25244778680735 -86.27387958484042, -67.25451135877233 -85.84015044119515, -67.7331089306424 -85.37650850999736 C-68.21170650251247 -84.91286657879958, -68.28018128192724 -84.33020368807249, -68.18179321289062 -83.58176535617268 C-68.08340514385401 -82.83332702427288, -67.62137808829277 -81.85803030714959, -67.14278051642269 -80.88587851859852 C-66.6641829445526 -79.91372673004744, -65.70537392931456 -78.40629772723209, -65.31020778167017 -77.74885462486625 C-64.91504163402578 -77.09141152250042, -64.86152098907536 -77.07582569114734, -64.7717836305564 -76.94121990440355 M-61.45151090467183 -77.83859148131589 C-61.316905117928044 -78.6910941279341, -60.53918318501788 -81.60755049772595, -60.64387618420914 -82.95360736102515 C-60.7485691834004 -84.29966422432435, -61.301946966909185 -85.34659773072207, -62.07966889981936 -85.91493266111111 C-62.857390832729536 -86.48326759150015, -64.36796777653299 -86.45335430187833, -65.31020778167017 -86.36361694335938 C-66.25244778680735 -86.27387958484042, -67.25451135877233 -85.84015044119515, -67.7331089306424 -85.37650850999736 C-68.21170650251247 -84.91286657879958, -68.28018128192724 -84.33020368807249, -68.18179321289062 -83.58176535617268 C-68.08340514385401 -82.83332702427288, -67.62137808829277 -81.85803030714959, -67.14278051642269 -80.88587851859852 C-66.6641829445526 -79.91372673004744, -65.70537392931456 -78.40629772723209, -65.31020778167017 -77.74885462486625 C-64.91504163402578 -77.09141152250042, -64.86152098907536 -77.07582569114734, -64.7717836305564 -76.94121990440355" stroke="#000000" stroke-width="1" fill="none"></path></g></g><g><g transform="translate(77.40438263244982 22.22835709763592) rotate(0 -21.34858512516479 1.9181323551935918)" fill-rule="evenodd"><path d="M-18.791074125825435 0 L-24.545471191406246 1.278757288291503 L-18.15169905892333 3.836264710387204 L-18.791074125825435 0" stroke="none" stroke-width="0" fill="#000" fill-rule="evenodd"></path><path d="M-18.791074125825435 0 C-20.641027418844384 0.41110149846916655, -22.490980711863333 0.8222029969383331, -24.545471191406246 1.278757288291503 M-18.791074125825435 0 C-20.614946713945063 0.4053057754605355, -22.43881930206469 0.810611550921071, -24.545471191406246 1.278757288291503 M-24.545471191406246 1.278757288291503 C-22.313420143004254 2.1715772081293068, -20.081369094602266 3.064397127967111, -18.15169905892333 3.836264710387204 M-24.545471191406246 1.278757288291503 C-23.151430295333377 1.836373334740564, -21.757389399260507 2.393989381189625, -18.15169905892333 3.836264710387204 M-18.15169905892333 3.836264710387204 C-18.39527280267246 2.3748167968032696, -18.638846546421583 0.9133688832193356, -18.791074125825435 0 M-18.15169905892333 3.836264710387204 C-18.33034177834255 2.7644043959147258, -18.50898449776177 1.692544081442247, -18.791074125825435 0 M-18.791074125825435 0 C-18.791074125825435 0, -18.791074125825435 0, -18.791074125825435 0 M-18.791074125825435 0 C-18.791074125825435 0, -18.791074125825435 0, -18.791074125825435 0" stroke="#000000" stroke-width="1" fill="none"></path></g></g><g><g transform="translate(80.13899713696469 24.045534489107354) rotate(0 0.04486993443276788 0.044868428224816626)"><path d="M0 0 C0.014956644810920114 0.014956142741607871, 0.07478322405460057 0.07478071370803935, 0.08973986886552068 0.08973685644964723 M0 0 C0.014956644810920114 0.014956142741607871, 0.07478322405460057 0.07478071370803935, 0.08973986886552068 0.08973685644964723" stroke="#000000" stroke-width="1" fill="none"></path></g></g><g transform="translate(57.3345583728194 18.392095964492228) rotate(0 7.885647288587791 5.115016632813223)"><path d="M7.885647288587802 0 C9.490766139550924 -0.06530550113379537, 11.6601358954968 0.4922193454873134, 12.954443660050295 1.1966865647855092 C14.248751424603789 1.901153784083705, 15.358098124952361 3.1474969183834522, 15.651493875908765 4.226803315789175 C15.944889626865168 5.306109713194897, 15.559617561032466 6.723398832207207, 14.714818165788717 7.672524949219845 C13.870018770544968 8.621651066232484, 12.17040101995617 9.546720839757478, 10.582697504446273 9.921560017865005 C8.994993988936375 10.296399195972532, 6.776300588239229 10.296399195972533, 5.188597072729331 9.921560017865007 C3.6008935572194325 9.54672083975748, 1.9012758066306352 8.621651066232484, 1.0564764113868863 7.672524949219845 C0.2116770161431375 6.723398832207206, -0.17359504968956552 5.306109713194896, 0.11980070126683806 4.226803315789174 C0.41319645222324164 3.1474969183834514, 1.5225431525718143 1.9011537840837054, 2.8168509171253078 1.1966865647855096 C4.111158681678801 0.49221934548731394, 7.040847893344051 0.18239770535487412, 7.8856472885877995 0 C8.730446683831548 -0.18239770535487412, 7.885647288587802 0.017050055442710946, 7.885647288587802 0.10230033265626481 M7.885647288587802 0 C9.490766139550924 -0.06530550113379537, 11.6601358954968 0.4922193454873134, 12.954443660050295 1.1966865647855092 C14.248751424603789 1.901153784083705, 15.358098124952361 3.1474969183834522, 15.651493875908765 4.226803315789175 C15.944889626865168 5.306109713194897, 15.559617561032466 6.723398832207207, 14.714818165788717 7.672524949219845 C13.870018770544968 8.621651066232484, 12.17040101995617 9.546720839757478, 10.582697504446273 9.921560017865005 C8.994993988936375 10.296399195972532, 6.776300588239229 10.296399195972533, 5.188597072729331 9.921560017865007 C3.6008935572194325 9.54672083975748, 1.9012758066306352 8.621651066232484, 1.0564764113868863 7.672524949219845 C0.2116770161431375 6.723398832207206, -0.17359504968956552 5.306109713194896, 0.11980070126683806 4.226803315789174 C0.41319645222324164 3.1474969183834514, 1.5225431525718143 1.9011537840837054, 2.8168509171253078 1.1966865647855096 C4.111158681678801 0.49221934548731394, 7.040847893344051 0.18239770535487412, 7.8856472885877995 0 C8.730446683831548 -0.18239770535487412, 7.885647288587802 0.017050055442710946, 7.885647288587802 0.10230033265626481" stroke="none" stroke-width="0" fill="#fab005"></path><path d="M7.885647288587802 0 C9.490766139550924 -0.06530550113379537, 11.6601358954968 0.4922193454873134, 12.954443660050295 1.1966865647855092 C14.248751424603789 1.901153784083705, 15.358098124952361 3.1474969183834522, 15.651493875908765 4.226803315789175 C15.944889626865168 5.306109713194897, 15.559617561032466 6.723398832207207, 14.714818165788717 7.672524949219845 C13.870018770544968 8.621651066232484, 12.17040101995617 9.546720839757478, 10.582697504446273 9.921560017865005 C8.994993988936375 10.296399195972532, 6.776300588239229 10.296399195972533, 5.188597072729331 9.921560017865007 C3.6008935572194325 9.54672083975748, 1.9012758066306352 8.621651066232484, 1.0564764113868863 7.672524949219845 C0.2116770161431375 6.723398832207206, -0.17359504968956552 5.306109713194896, 0.11980070126683806 4.226803315789174 C0.41319645222324164 3.1474969183834514, 1.5225431525718143 1.9011537840837054, 2.8168509171253078 1.1966865647855096 C4.111158681678801 0.49221934548731394, 7.040847893344051 0.18239770535487412, 7.8856472885877995 0 C8.730446683831548 -0.18239770535487412, 7.885647288587802 0.017050055442710946, 7.885647288587802 0.10230033265626481 M7.885647288587802 0 C9.490766139550924 -0.06530550113379537, 11.6601358954968 0.4922193454873134, 12.954443660050295 1.1966865647855092 C14.248751424603789 1.901153784083705, 15.358098124952361 3.1474969183834522, 15.651493875908765 4.226803315789175 C15.944889626865168 5.306109713194897, 15.559617561032466 6.723398832207207, 14.714818165788717 7.672524949219845 C13.870018770544968 8.621651066232484, 12.17040101995617 9.546720839757478, 10.582697504446273 9.921560017865005 C8.994993988936375 10.296399195972532, 6.776300588239229 10.296399195972533, 5.188597072729331 9.921560017865007 C3.6008935572194325 9.54672083975748, 1.9012758066306352 8.621651066232484, 1.0564764113868863 7.672524949219845 C0.2116770161431375 6.723398832207206, -0.17359504968956552 5.306109713194896, 0.11980070126683806 4.226803315789174 C0.41319645222324164 3.1474969183834514, 1.5225431525718143 1.9011537840837054, 2.8168509171253078 1.1966865647855096 C4.111158681678801 0.49221934548731394, 7.040847893344051 0.18239770535487412, 7.8856472885877995 0 C8.730446683831548 -0.18239770535487412, 7.885647288587802 0.017050055442710946, 7.885647288587802 0.10230033265626481" stroke="#000000" stroke-width="1" fill="none"></path></g><g transform="translate(71.82709566170365 18.743277689023216) rotate(0 4.475639777289302 4.475637988667472)"><path d="M4.475639777289302 0 C5.386653612138868 -0.05714229351051533, 6.617918112823699 0.43069177669680936, 7.352525571551089 1.047100378036557 C8.087133030278478 1.6635089793763047, 8.716762537810494 2.754058840544376, 8.88328452965364 3.698451608038486 C9.049806521496786 4.642844375532596, 8.831138488320263 5.882971921019734, 8.351657522609965 6.713456983001219 C7.872176556899667 7.543942044982704, 6.90752818596239 8.353377813773033, 6.006398735391854 8.681361979927395 C5.105269284821318 9.009346146081757, 3.8460102697572873 9.009346146081757, 2.9448808191867513 8.681361979927395 C2.043751368616215 8.353377813773033, 1.0791029976789366 7.543942044982704, 0.599622031968639 6.713456983001219 C0.12014106625834126 5.882971921019734, -0.09852696691818111 4.642844375532595, 0.06799502492496501 3.6984516080384857 C0.23451701676811113 2.7540588405443756, 0.8641465243001263 1.6635089793763056, 1.5987539830275157 1.047100378036558 C2.333361441754905 0.43069177669681036, 3.996158811579004 0.15959793637720132, 4.4756397772893015 0 C4.9551207429996 -0.15959793637720132, 4.475639777289302 0.014918793295558785, 4.475639777289302 0.08951275977335005 M4.475639777289302 0 C5.386653612138868 -0.05714229351051533, 6.617918112823699 0.43069177669680936, 7.352525571551089 1.047100378036557 C8.087133030278478 1.6635089793763047, 8.716762537810494 2.754058840544376, 8.88328452965364 3.698451608038486 C9.049806521496786 4.642844375532596, 8.831138488320263 5.882971921019734, 8.351657522609965 6.713456983001219 C7.872176556899667 7.543942044982704, 6.90752818596239 8.353377813773033, 6.006398735391854 8.681361979927395 C5.105269284821318 9.009346146081757, 3.8460102697572873 9.009346146081757, 2.9448808191867513 8.681361979927395 C2.043751368616215 8.353377813773033, 1.0791029976789366 7.543942044982704, 0.599622031968639 6.713456983001219 C0.12014106625834126 5.882971921019734, -0.09852696691818111 4.642844375532595, 0.06799502492496501 3.6984516080384857 C0.23451701676811113 2.7540588405443756, 0.8641465243001263 1.6635089793763056, 1.5987539830275157 1.047100378036558 C2.333361441754905 0.43069177669681036, 3.996158811579004 0.15959793637720132, 4.4756397772893015 0 C4.9551207429996 -0.15959793637720132, 4.475639777289302 0.014918793295558785, 4.475639777289302 0.08951275977335005" stroke="none" stroke-width="0" fill="#fab005"></path><path d="M4.475639777289302 0 C5.386653612138868 -0.05714229351051533, 6.617918112823699 0.43069177669680936, 7.352525571551089 1.047100378036557 C8.087133030278478 1.6635089793763047, 8.716762537810494 2.754058840544376, 8.88328452965364 3.698451608038486 C9.049806521496786 4.642844375532596, 8.831138488320263 5.882971921019734, 8.351657522609965 6.713456983001219 C7.872176556899667 7.543942044982704, 6.90752818596239 8.353377813773033, 6.006398735391854 8.681361979927395 C5.105269284821318 9.009346146081757, 3.8460102697572873 9.009346146081757, 2.9448808191867513 8.681361979927395 C2.043751368616215 8.353377813773033, 1.0791029976789366 7.543942044982704, 0.599622031968639 6.713456983001219 C0.12014106625834126 5.882971921019734, -0.09852696691818111 4.642844375532595, 0.06799502492496501 3.6984516080384857 C0.23451701676811113 2.7540588405443756, 0.8641465243001263 1.6635089793763056, 1.5987539830275157 1.047100378036558 C2.333361441754905 0.43069177669681036, 3.996158811579004 0.15959793637720132, 4.4756397772893015 0 C4.9551207429996 -0.15959793637720132, 4.475639777289302 0.014918793295558785, 4.475639777289302 0.08951275977335005 M4.475639777289302 0 C5.386653612138868 -0.05714229351051533, 6.617918112823699 0.43069177669680936, 7.352525571551089 1.047100378036557 C8.087133030278478 1.6635089793763047, 8.716762537810494 2.754058840544376, 8.88328452965364 3.698451608038486 C9.049806521496786 4.642844375532596, 8.831138488320263 5.882971921019734, 8.351657522609965 6.713456983001219 C7.872176556899667 7.543942044982704, 6.90752818596239 8.353377813773033, 6.006398735391854 8.681361979927395 C5.105269284821318 9.009346146081757, 3.8460102697572873 9.009346146081757, 2.9448808191867513 8.681361979927395 C2.043751368616215 8.353377813773033, 1.0791029976789366 7.543942044982704, 0.599622031968639 6.713456983001219 C0.12014106625834126 5.882971921019734, -0.09852696691818111 4.642844375532595, 0.06799502492496501 3.6984516080384857 C0.23451701676811113 2.7540588405443756, 0.8641465243001263 1.6635089793763056, 1.5987539830275157 1.047100378036558 C2.333361441754905 0.43069177669681036, 3.996158811579004 0.15959793637720132, 4.4756397772893015 0 C4.9551207429996 -0.15959793637720132, 4.475639777289302 0.014918793295558785, 4.475639777289302 0.08951275977335005" stroke="#000000" stroke-width="1" fill="none"></path></g><g><g transform="translate(133.6521711612147 96.47977852033) rotate(17.07209388302214 -66.64061487444064 -81.67745525987385)"><path d="M-63.56071247631782 -77.83859148131589 C-63.426106689574034 -78.6910941279341, -62.64838475666385 -81.60755049772595, -62.75307775585511 -82.95360736102515 C-62.85777075504637 -84.29966422432435, -63.41114853855518 -85.34659773072207, -64.18887047146535 -85.91493266111111 C-64.96659240437552 -86.48326759150015, -66.47716934817896 -86.45335430187833, -67.41940935331614 -86.36361694335938 C-68.36164935845332 -86.27387958484042, -69.3252123255969 -85.86761979658364, -69.84231050228838 -85.37650850999736 C-70.35940867897988 -84.88539722341109, -70.59477278867477 -84.1463431859748, -70.52199841346507 -83.41694922384173 C-70.44922403825537 -82.68755526170865, -69.92276242772168 -81.94482717036152, -69.40566425103019 -81.00014473719894 C-68.8885660743387 -80.05546230403635, -67.84018919478744 -78.42534209699882, -67.41940935331614 -77.74885462486625 C-66.99862951184484 -77.07236715273369, -66.97072256072137 -77.07582569114734, -66.88098520220241 -76.94121990440355 M-63.56071247631782 -77.83859148131589 C-63.426106689574034 -78.6910941279341, -62.64838475666385 -81.60755049772595, -62.75307775585511 -82.95360736102515 C-62.85777075504637 -84.29966422432435, -63.41114853855518 -85.34659773072207, -64.18887047146535 -85.91493266111111 C-64.96659240437552 -86.48326759150015, -66.47716934817896 -86.45335430187833, -67.41940935331614 -86.36361694335938 C-68.36164935845332 -86.27387958484042, -69.3252123255969 -85.86761979658364, -69.84231050228838 -85.37650850999736 C-70.35940867897988 -84.88539722341109, -70.59477278867477 -84.1463431859748, -70.52199841346507 -83.41694922384173 C-70.44922403825537 -82.68755526170865, -69.92276242772168 -81.94482717036152, -69.40566425103019 -81.00014473719894 C-68.8885660743387 -80.05546230403635, -67.84018919478744 -78.42534209699882, -67.41940935331614 -77.74885462486625 C-66.99862951184484 -77.07236715273369, -66.97072256072137 -77.07582569114734, -66.88098520220241 -76.94121990440355" stroke="#000000" stroke-width="1" fill="none"></path></g></g><g><g transform="translate(77.32458861652617 19.109992322297444) rotate(0 -8.238050058312979 4.217645809004864)"><path d="M-8.193540288322032 0 C-8.343102217807422 0.43372964571456535, -8.941349935748985 1.7199624401166536, -9.090911865234375 2.602377874287392 C-9.240473794719765 3.4847933084581304, -9.404991866946766 4.322340314404045, -9.090911865234375 5.29449260502443 C-8.776831863521984 6.266644895644815, -7.520511856672425 7.911825115845491, -7.2064318549600355 8.435291618009703 M-8.193540288322032 0 C-8.343102217807422 0.43372964571456535, -8.941349935748985 1.7199624401166536, -9.090911865234375 2.602377874287392 C-9.240473794719765 3.4847933084581304, -9.404991866946766 4.322340314404045, -9.090911865234375 5.29449260502443 C-8.776831863521984 6.266644895644815, -7.520511856672425 7.911825115845491, -7.2064318549600355 8.435291618009703" stroke="#000000" stroke-width="1" fill="none"></path></g></g><g><g transform="translate(78.56264813110806 18.392097470700264) rotate(0 -12.546136615791681 5.070147451484445)"><path d="M-12.290296679901916 0 C-12.484727037612132 0.6580717868386848, -13.232536182969774 2.8117608602540347, -13.456878826163205 3.9484307210321092 C-13.681221469356636 5.085100581810184, -13.770958325806284 5.982472158722528, -13.6363525390625 6.820019164668445 C-13.501746752318716 7.657566170614363, -13.023148678379327 8.420333466990874, -12.649244105700506 8.973712756707615 C-12.275339533021684 9.527092046424356, -11.602311603441395 9.94586454525868, -11.392925102989572 10.140294902968892 M-12.290296679901916 0 C-12.484727037612132 0.6580717868386848, -13.232536182969774 2.8117608602540347, -13.456878826163205 3.9484307210321092 C-13.681221469356636 5.085100581810184, -13.770958325806284 5.982472158722528, -13.6363525390625 6.820019164668445 C-13.501746752318716 7.657566170614363, -13.023148678379327 8.420333466990874, -12.649244105700506 8.973712756707615 C-12.275339533021684 9.527092046424356, -11.602311603441395 9.94586454525868, -11.392925102989572 10.140294902968892" stroke="#000000" stroke-width="1" fill="none"></path></g></g><g><g transform="translate(73.30873044325176 19.103573693829276) rotate(0 -10.565132633462781 4.576593234803454)"><path d="M-10.651594123269966 0 C-10.84602448098018 0.6281600034247803, -11.743395555823211 2.7070708734786493, -11.81817626953125 3.7689600205486817 C-11.892956983239289 4.830849167618714, -11.414358407230592 5.6085695943209455, -11.100278405518203 6.3713348824201965 C-10.786198403805814 7.134100170519448, -10.232819616158384 7.881909817946406, -9.933696259256914 8.345551749144187 C-9.634572902355444 8.809193680341968, -9.410231263300636 9.0185806828631, -9.30553826410938 9.153186469606881 M-10.651594123269966 0 C-10.84602448098018 0.6281600034247803, -11.743395555823211 2.7070708734786493, -11.81817626953125 3.7689600205486817 C-11.892956983239289 4.830849167618714, -11.414358407230592 5.6085695943209455, -11.100278405518203 6.3713348824201965 C-10.786198403805814 7.134100170519448, -10.232819616158384 7.881909817946406, -9.933696259256914 8.345551749144187 C-9.634572902355444 8.809193680341968, -9.410231263300636 9.0185806828631, -9.30553826410938 9.153186469606881" stroke="#000000" stroke-width="1" fill="none"></path></g></g><g transform="translate(75.3069958747576 20.61481640143859) rotate(0 1.0768452898116152 1.0768452898116436)"><path d="M1.076845289811641 0 C1.296036512927715 -0.013748522505984203, 1.5922805012850108 0.10362509485148266, 1.7690280996518744 0.251933939452588 C1.945775698018738 0.4002427840536934, 2.097265452165779 0.6626307350624865, 2.137330880012823 0.8898530676066321 C2.177396307859867 1.1170754001507777, 2.124784468374177 1.4154519689226164, 2.009420666734138 1.6152679347174614 C1.8940568650940992 1.8150839005123065, 1.6619610963864975 2.009835374432663, 1.4451480701725898 2.088748862375703 C1.2283350439586822 2.1676623503187433, 0.9253555356646 2.1676623503187433, 0.7085425094506923 2.088748862375703 C0.49172948323678456 2.009835374432663, 0.2596337145291826 1.8150839005123067, 0.1442699128891437 1.6152679347174614 C0.028906111249104804 1.4154519689226162, -0.023705728236585046 1.1170754001507774, 0.01635969961045891 0.8898530676066319 C0.05642512745750287 0.6626307350624863, 0.20791488160454383 0.4002427840536934, 0.38466247997140746 0.25193393945258813 C0.5614100783382711 0.10362509485148283, 0.9614814881716018 0.03839950560939254, 1.0768452898116407 0 C1.1922090914516796 -0.03839950560939254, 1.076845289811641 0.0035894842993722254, 1.076845289811641 0.021536905796232908 M1.076845289811641 0 C1.296036512927715 -0.013748522505984203, 1.5922805012850108 0.10362509485148266, 1.7690280996518744 0.251933939452588 C1.945775698018738 0.4002427840536934, 2.097265452165779 0.6626307350624865, 2.137330880012823 0.8898530676066321 C2.177396307859867 1.1170754001507777, 2.124784468374177 1.4154519689226164, 2.009420666734138 1.6152679347174614 C1.8940568650940992 1.8150839005123065, 1.6619610963864975 2.009835374432663, 1.4451480701725898 2.088748862375703 C1.2283350439586822 2.1676623503187433, 0.9253555356646 2.1676623503187433, 0.7085425094506923 2.088748862375703 C0.49172948323678456 2.009835374432663, 0.2596337145291826 1.8150839005123067, 0.1442699128891437 1.6152679347174614 C0.028906111249104804 1.4154519689226162, -0.023705728236585046 1.1170754001507774, 0.01635969961045891 0.8898530676066319 C0.05642512745750287 0.6626307350624863, 0.20791488160454383 0.4002427840536934, 0.38466247997140746 0.25193393945258813 C0.5614100783382711 0.10362509485148283, 0.9614814881716018 0.03839950560939254, 1.0768452898116407 0 C1.1922090914516796 -0.03839950560939254, 1.076845289811641 0.0035894842993722254, 1.076845289811641 0.021536905796232908" stroke="none" stroke-width="0" fill="#fff"></path><path d="M1.076845289811641 0 C1.296036512927715 -0.013748522505984203, 1.5922805012850108 0.10362509485148266, 1.7690280996518744 0.251933939452588 C1.945775698018738 0.4002427840536934, 2.097265452165779 0.6626307350624865, 2.137330880012823 0.8898530676066321 C2.177396307859867 1.1170754001507777, 2.124784468374177 1.4154519689226164, 2.009420666734138 1.6152679347174614 C1.8940568650940992 1.8150839005123065, 1.6619610963864975 2.009835374432663, 1.4451480701725898 2.088748862375703 C1.2283350439586822 2.1676623503187433, 0.9253555356646 2.1676623503187433, 0.7085425094506923 2.088748862375703 C0.49172948323678456 2.009835374432663, 0.2596337145291826 1.8150839005123067, 0.1442699128891437 1.6152679347174614 C0.028906111249104804 1.4154519689226162, -0.023705728236585046 1.1170754001507774, 0.01635969961045891 0.8898530676066319 C0.05642512745750287 0.6626307350624863, 0.20791488160454383 0.4002427840536934, 0.38466247997140746 0.25193393945258813 C0.5614100783382711 0.10362509485148283, 0.9614814881716018 0.03839950560939254, 1.0768452898116407 0 C1.1922090914516796 -0.03839950560939254, 1.076845289811641 0.0035894842993722254, 1.076845289811641 0.021536905796232908 M1.076845289811641 0 C1.296036512927715 -0.013748522505984203, 1.5922805012850108 0.10362509485148266, 1.7690280996518744 0.251933939452588 C1.945775698018738 0.4002427840536934, 2.097265452165779 0.6626307350624865, 2.137330880012823 0.8898530676066321 C2.177396307859867 1.1170754001507777, 2.124784468374177 1.4154519689226164, 2.009420666734138 1.6152679347174614 C1.8940568650940992 1.8150839005123065, 1.6619610963864975 2.009835374432663, 1.4451480701725898 2.088748862375703 C1.2283350439586822 2.1676623503187433, 0.9253555356646 2.1676623503187433, 0.7085425094506923 2.088748862375703 C0.49172948323678456 2.009835374432663, 0.2596337145291826 1.8150839005123067, 0.1442699128891437 1.6152679347174614 C0.028906111249104804 1.4154519689226162, -0.023705728236585046 1.1170754001507774, 0.01635969961045891 0.8898530676066319 C0.05642512745750287 0.6626307350624863, 0.20791488160454383 0.4002427840536934, 0.38466247997140746 0.25193393945258813 C0.5614100783382711 0.10362509485148283, 0.9614814881716018 0.03839950560939254, 1.0768452898116407 0 C1.1922090914516796 -0.03839950560939254, 1.076845289811641 0.0035894842993722254, 1.076845289811641 0.021536905796232908" stroke="#000000" stroke-width="1" fill="none"></path></g><g transform="translate(78.08884607159848 20.497468899715727) rotate(0 1.0768452898116152 1.0768452898116436)"><path d="M1.076845289811641 0 C1.296036512927715 -0.013748522505984203, 1.5922805012850108 0.10362509485148266, 1.7690280996518744 0.251933939452588 C1.945775698018738 0.4002427840536934, 2.097265452165779 0.6626307350624865, 2.137330880012823 0.8898530676066321 C2.177396307859867 1.1170754001507777, 2.124784468374177 1.4154519689226164, 2.009420666734138 1.6152679347174614 C1.8940568650940992 1.8150839005123065, 1.6619610963864975 2.009835374432663, 1.4451480701725898 2.088748862375703 C1.2283350439586822 2.1676623503187433, 0.9253555356646 2.1676623503187433, 0.7085425094506923 2.088748862375703 C0.49172948323678456 2.009835374432663, 0.2596337145291826 1.8150839005123067, 0.1442699128891437 1.6152679347174614 C0.028906111249104804 1.4154519689226162, -0.023705728236585046 1.1170754001507774, 0.01635969961045891 0.8898530676066319 C0.05642512745750287 0.6626307350624863, 0.20791488160454383 0.4002427840536934, 0.38466247997140746 0.25193393945258813 C0.5614100783382711 0.10362509485148283, 0.9614814881716018 0.03839950560939254, 1.0768452898116407 0 C1.1922090914516796 -0.03839950560939254, 1.076845289811641 0.0035894842993722254, 1.076845289811641 0.021536905796232908 M1.076845289811641 0 C1.296036512927715 -0.013748522505984203, 1.5922805012850108 0.10362509485148266, 1.7690280996518744 0.251933939452588 C1.945775698018738 0.4002427840536934, 2.097265452165779 0.6626307350624865, 2.137330880012823 0.8898530676066321 C2.177396307859867 1.1170754001507777, 2.124784468374177 1.4154519689226164, 2.009420666734138 1.6152679347174614 C1.8940568650940992 1.8150839005123065, 1.6619610963864975 2.009835374432663, 1.4451480701725898 2.088748862375703 C1.2283350439586822 2.1676623503187433, 0.9253555356646 2.1676623503187433, 0.7085425094506923 2.088748862375703 C0.49172948323678456 2.009835374432663, 0.2596337145291826 1.8150839005123067, 0.1442699128891437 1.6152679347174614 C0.028906111249104804 1.4154519689226162, -0.023705728236585046 1.1170754001507774, 0.01635969961045891 0.8898530676066319 C0.05642512745750287 0.6626307350624863, 0.20791488160454383 0.4002427840536934, 0.38466247997140746 0.25193393945258813 C0.5614100783382711 0.10362509485148283, 0.9614814881716018 0.03839950560939254, 1.0768452898116407 0 C1.1922090914516796 -0.03839950560939254, 1.076845289811641 0.0035894842993722254, 1.076845289811641 0.021536905796232908" stroke="none" stroke-width="0" fill="#fff"></path><path d="M1.076845289811641 0 C1.296036512927715 -0.013748522505984203, 1.5922805012850108 0.10362509485148266, 1.7690280996518744 0.251933939452588 C1.945775698018738 0.4002427840536934, 2.097265452165779 0.6626307350624865, 2.137330880012823 0.8898530676066321 C2.177396307859867 1.1170754001507777, 2.124784468374177 1.4154519689226164, 2.009420666734138 1.6152679347174614 C1.8940568650940992 1.8150839005123065, 1.6619610963864975 2.009835374432663, 1.4451480701725898 2.088748862375703 C1.2283350439586822 2.1676623503187433, 0.9253555356646 2.1676623503187433, 0.7085425094506923 2.088748862375703 C0.49172948323678456 2.009835374432663, 0.2596337145291826 1.8150839005123067, 0.1442699128891437 1.6152679347174614 C0.028906111249104804 1.4154519689226162, -0.023705728236585046 1.1170754001507774, 0.01635969961045891 0.8898530676066319 C0.05642512745750287 0.6626307350624863, 0.20791488160454383 0.4002427840536934, 0.38466247997140746 0.25193393945258813 C0.5614100783382711 0.10362509485148283, 0.9614814881716018 0.03839950560939254, 1.0768452898116407 0 C1.1922090914516796 -0.03839950560939254, 1.076845289811641 0.0035894842993722254, 1.076845289811641 0.021536905796232908 M1.076845289811641 0 C1.296036512927715 -0.013748522505984203, 1.5922805012850108 0.10362509485148266, 1.7690280996518744 0.251933939452588 C1.945775698018738 0.4002427840536934, 2.097265452165779 0.6626307350624865, 2.137330880012823 0.8898530676066321 C2.177396307859867 1.1170754001507777, 2.124784468374177 1.4154519689226164, 2.009420666734138 1.6152679347174614 C1.8940568650940992 1.8150839005123065, 1.6619610963864975 2.009835374432663, 1.4451480701725898 2.088748862375703 C1.2283350439586822 2.1676623503187433, 0.9253555356646 2.1676623503187433, 0.7085425094506923 2.088748862375703 C0.49172948323678456 2.009835374432663, 0.2596337145291826 1.8150839005123067, 0.1442699128891437 1.6152679347174614 C0.028906111249104804 1.4154519689226162, -0.023705728236585046 1.1170754001507774, 0.01635969961045891 0.8898530676066319 C0.05642512745750287 0.6626307350624863, 0.20791488160454383 0.4002427840536934, 0.38466247997140746 0.25193393945258813 C0.5614100783382711 0.10362509485148283, 0.9614814881716018 0.03839950560939254, 1.0768452898116407 0 C1.1922090914516796 -0.03839950560939254, 1.076845289811641 0.0035894842993722254, 1.076845289811641 0.021536905796232908" stroke="#000000" stroke-width="1" fill="none"></path></g><g><g transform="translate(80.36334124774544 24.8290114880607) rotate(0 -2.4159992407579125 -0.06212662770093402)" fill-rule="evenodd"><path d="" stroke="none" stroke-width="0" fill="#000" fill-rule="evenodd"></path><path d="M0 0 C-0.5339467828564276 0.0805330763009664, -2.3983476168859306 0.5867413706856316, -3.203680697138566 0.4831984578057984 C-4.009013777391201 0.37965554492596515, -4.560612184119603 -0.4371814880981998, -4.831998481515811 -0.6212574772789994 M0 0 C-0.5339467828564276 0.0805330763009664, -2.3983476168859306 0.5867413706856316, -3.203680697138566 0.4831984578057984 C-4.009013777391201 0.37965554492596515, -4.560612184119603 -0.4371814880981998, -4.831998481515811 -0.6212574772789994" stroke="#000000" stroke-width="1" fill="none"></path></g></g><g><g transform="translate(76.9119097885316 42.91191471417346) rotate(0 1.2080019376219298 -25.266291737205933)"><path d="M0 -23.95033160884146 C0.1380574746445514 -24.341493423781923, 0.4256775353266653 -25.860121782800366, 0.8283448478673083 -26.29730249848424 C1.2310121604079514 -26.73448321416811, 2.1513940373477665 -26.52739700220129, 2.416003875243858 -26.573415902944703 M0 -23.95033160884146 C0.1380574746445514 -24.341493423781923, 0.4256775353266653 -25.860121782800366, 0.8283448478673083 -26.29730249848424 C1.2310121604079514 -26.73448321416811, 2.1513940373477665 -26.52739700220129, 2.416003875243858 -26.573415902944703" stroke="#000000" stroke-width="1" fill="none"></path></g></g><g><g transform="translate(75.18619869341023 52.21894080210518) rotate(0 0.37534209367152016 -34.56889984382508)"><path d="M0 -32.77415692172469 C0.011504338978689849 -33.211338023615724, -0.05752632937939933 -34.79899589237076, 0.0690260338721391 -35.39724353307089 C0.19557839712367753 -35.99549117377102, 0.644266155236382 -36.20257622711638, 0.7593141795092305 -36.363642765925476 M0 -32.77415692172469 C0.011504338978689849 -33.211338023615724, -0.05752632937939933 -34.79899589237076, 0.0690260338721391 -35.39724353307089 C0.19557839712367753 -35.99549117377102, 0.644266155236382 -36.20257622711638, 0.7593141795092305 -36.363642765925476" stroke="#000000" stroke-width="1" fill="none"></path></g></g><g><g transform="translate(69.60809814710342 27.493895329554903) rotate(0 0.5172908143807717 2.9682272083003056)" fill-rule="evenodd"><path d="M0 0 L1.0345816287615435 2.990062476217446 L0.13805206774427603 5.936454416600594" stroke="none" stroke-width="0" fill="#000" fill-rule="evenodd"></path><path d="M0 0 C0.3399142003750371 0.9823919808932876, 0.6798284007500742 1.9647839617865752, 1.0345816287615435 2.990062476217446 M0 0 C0.3745600057572549 1.0825224295227582, 0.7491200115145098 2.1650448590455165, 1.0345816287615435 2.990062476217446 M1.0345816287615435 2.990062476217446 C0.8044421489678665 3.7464024095696273, 0.5743026691741895 4.502742342921809, 0.13805206774427603 5.936454416600594 M1.0345816287615435 2.990062476217446 C0.7155695528332024 4.038476996240236, 0.39655747690486154 5.086891516263026, 0.13805206774427603 5.936454416600594 M0.13805206774427603 5.936454416600594 C0.08388959819479869 3.607383676663622, 0.02972712864532133 1.2783129367266497, 0 0 M0.13805206774427603 5.936454416600594 C0.08972597373957537 3.8583569358538368, 0.04139987973487472 1.7802594551070792, 0 0" stroke="#000000" stroke-width="1" fill="none"></path></g></g><g><g transform="translate(73.85988543693452 27.94397939135149) rotate(0 -10.63659486722554 2.4850275918730063)" fill-rule="evenodd"><path d="M-10.084365741061635 0 L-11.188823993389406 3.3133701224973517 L-10.15339640941973 4.970055183746025" stroke="none" stroke-width="0" fill="#000" fill-rule="evenodd"></path><path d="M-10.084365741061635 0 C-10.470174450606782 1.1574245097195206, -10.85598316015193 2.314849019439041, -11.188823993389406 3.3133701224973517 M-10.084365741061635 0 C-10.345283421359984 0.7827519460421386, -10.60620110165833 1.5655038920842772, -11.188823993389406 3.3133701224973517 M-11.188823993389406 3.3133701224973517 C-10.79113073722039 3.9496796883760275, -10.393437481051375 4.585989254254703, -10.15339640941973 4.970055183746025 M-11.188823993389406 3.3133701224973517 C-10.911436599032095 3.7571902017815333, -10.634049204674787 4.201010281065715, -10.15339640941973 4.970055183746025 M-10.15339640941973 4.970055183746025 C-10.130140507236236 3.2956817501848104, -10.106884605052741 1.6213083166235953, -10.084365741061635 0 M-10.15339640941973 4.970055183746025 C-10.139458374279274 3.966547533469345, -10.125520339138818 2.963039883192665, -10.084365741061635 0" stroke="#000000" stroke-width="1" fill="none"></path></g></g><g transform="translate(75.61208382040354 14.969209035096583) rotate(0 0.6470253082378576 0.6470253082378861)"><path d="M0.6470253082378852 0 C0.7787269278127119 -0.008260835698882927, 0.9567259028688478 0.06226340921191058, 1.0629251595268117 0.15137516630490933 C1.1691244161847756 0.24048692339790806, 1.260147431096245 0.39814340988267277, 1.2842208481856683 0.5346705425579925 C1.3082942652750915 0.6711976752333122, 1.2766823039448383 0.8504780168080343, 1.2073656620633506 0.9705379623568278 C1.138049020181863 1.0905979079056214, 0.9985936706441286 1.2076148402684328, 0.8683209968967417 1.2550302158507538 C0.7380483231493548 1.3024455914330748, 0.5560022933264157 1.3024455914330748, 0.4257296195790287 1.2550302158507538 C0.2954569458316417 1.2076148402684328, 0.1560015962939075 1.0905979079056214, 0.08668495441241975 0.9705379623568278 C0.01736831253093199 0.8504780168080341, -0.01424364879932095 0.6711976752333121, 0.009829768290102181 0.5346705425579924 C0.033903185379525316 0.3981434098826727, 0.12492620029099472 0.24048692339790811, 0.23112545694895853 0.15137516630490938 C0.33732471360692234 0.06226340921191065, 0.5777086663563973 0.02307244335669194, 0.6470253082378851 0 C0.7163419501193729 -0.02307244335669194, 0.6470253082378852 0.002156751027459639, 0.6470253082378852 0.012940506164757726 M0.6470253082378852 0 C0.7787269278127119 -0.008260835698882927, 0.9567259028688478 0.06226340921191058, 1.0629251595268117 0.15137516630490933 C1.1691244161847756 0.24048692339790806, 1.260147431096245 0.39814340988267277, 1.2842208481856683 0.5346705425579925 C1.3082942652750915 0.6711976752333122, 1.2766823039448383 0.8504780168080343, 1.2073656620633506 0.9705379623568278 C1.138049020181863 1.0905979079056214, 0.9985936706441286 1.2076148402684328, 0.8683209968967417 1.2550302158507538 C0.7380483231493548 1.3024455914330748, 0.5560022933264157 1.3024455914330748, 0.4257296195790287 1.2550302158507538 C0.2954569458316417 1.2076148402684328, 0.1560015962939075 1.0905979079056214, 0.08668495441241975 0.9705379623568278 C0.01736831253093199 0.8504780168080341, -0.01424364879932095 0.6711976752333121, 0.009829768290102181 0.5346705425579924 C0.033903185379525316 0.3981434098826727, 0.12492620029099472 0.24048692339790811, 0.23112545694895853 0.15137516630490938 C0.33732471360692234 0.06226340921191065, 0.5777086663563973 0.02307244335669194, 0.6470253082378851 0 C0.7163419501193729 -0.02307244335669194, 0.6470253082378852 0.002156751027459639, 0.6470253082378852 0.012940506164757726" stroke="none" stroke-width="0" fill="#000"></path><path d="M0.6470253082378852 0 C0.7787269278127119 -0.008260835698882927, 0.9567259028688478 0.06226340921191058, 1.0629251595268117 0.15137516630490933 C1.1691244161847756 0.24048692339790806, 1.260147431096245 0.39814340988267277, 1.2842208481856683 0.5346705425579925 C1.3082942652750915 0.6711976752333122, 1.2766823039448383 0.8504780168080343, 1.2073656620633506 0.9705379623568278 C1.138049020181863 1.0905979079056214, 0.9985936706441286 1.2076148402684328, 0.8683209968967417 1.2550302158507538 C0.7380483231493548 1.3024455914330748, 0.5560022933264157 1.3024455914330748, 0.4257296195790287 1.2550302158507538 C0.2954569458316417 1.2076148402684328, 0.1560015962939075 1.0905979079056214, 0.08668495441241975 0.9705379623568278 C0.01736831253093199 0.8504780168080341, -0.01424364879932095 0.6711976752333121, 0.009829768290102181 0.5346705425579924 C0.033903185379525316 0.3981434098826727, 0.12492620029099472 0.24048692339790811, 0.23112545694895853 0.15137516630490938 C0.33732471360692234 0.06226340921191065, 0.5777086663563973 0.02307244335669194, 0.6470253082378851 0 C0.7163419501193729 -0.02307244335669194, 0.6470253082378852 0.002156751027459639, 0.6470253082378852 0.012940506164757726 M0.6470253082378852 0 C0.7787269278127119 -0.008260835698882927, 0.9567259028688478 0.06226340921191058, 1.0629251595268117 0.15137516630490933 C1.1691244161847756 0.24048692339790806, 1.260147431096245 0.39814340988267277, 1.2842208481856683 0.5346705425579925 C1.3082942652750915 0.6711976752333122, 1.2766823039448383 0.8504780168080343, 1.2073656620633506 0.9705379623568278 C1.138049020181863 1.0905979079056214, 0.9985936706441286 1.2076148402684328, 0.8683209968967417 1.2550302158507538 C0.7380483231493548 1.3024455914330748, 0.5560022933264157 1.3024455914330748, 0.4257296195790287 1.2550302158507538 C0.2954569458316417 1.2076148402684328, 0.1560015962939075 1.0905979079056214, 0.08668495441241975 0.9705379623568278 C0.01736831253093199 0.8504780168080341, -0.01424364879932095 0.6711976752333121, 0.009829768290102181 0.5346705425579924 C0.033903185379525316 0.3981434098826727, 0.12492620029099472 0.24048692339790811, 0.23112545694895853 0.15137516630490938 C0.33732471360692234 0.06226340921191065, 0.5777086663563973 0.02307244335669194, 0.6470253082378851 0 C0.7163419501193729 -0.02307244335669194, 0.6470253082378852 0.002156751027459639, 0.6470253082378852 0.012940506164757726" stroke="#000000" stroke-width="1" fill="none"></path></g><g transform="translate(78.73771706113098 15.40719226165902) rotate(0 0.6470253082378576 0.6470253082378861)"><path d="M0.6470253082378852 0 C0.7787269278127119 -0.008260835698882927, 0.9567259028688478 0.06226340921191058, 1.0629251595268117 0.15137516630490933 C1.1691244161847756 0.24048692339790806, 1.260147431096245 0.39814340988267277, 1.2842208481856683 0.5346705425579925 C1.3082942652750915 0.6711976752333122, 1.2766823039448383 0.8504780168080343, 1.2073656620633506 0.9705379623568278 C1.138049020181863 1.0905979079056214, 0.9985936706441286 1.2076148402684328, 0.8683209968967417 1.2550302158507538 C0.7380483231493548 1.3024455914330748, 0.5560022933264157 1.3024455914330748, 0.4257296195790287 1.2550302158507538 C0.2954569458316417 1.2076148402684328, 0.1560015962939075 1.0905979079056214, 0.08668495441241975 0.9705379623568278 C0.01736831253093199 0.8504780168080341, -0.01424364879932095 0.6711976752333121, 0.009829768290102181 0.5346705425579924 C0.033903185379525316 0.3981434098826727, 0.12492620029099472 0.24048692339790811, 0.23112545694895853 0.15137516630490938 C0.33732471360692234 0.06226340921191065, 0.5777086663563973 0.02307244335669194, 0.6470253082378851 0 C0.7163419501193729 -0.02307244335669194, 0.6470253082378852 0.002156751027459639, 0.6470253082378852 0.012940506164757726 M0.6470253082378852 0 C0.7787269278127119 -0.008260835698882927, 0.9567259028688478 0.06226340921191058, 1.0629251595268117 0.15137516630490933 C1.1691244161847756 0.24048692339790806, 1.260147431096245 0.39814340988267277, 1.2842208481856683 0.5346705425579925 C1.3082942652750915 0.6711976752333122, 1.2766823039448383 0.8504780168080343, 1.2073656620633506 0.9705379623568278 C1.138049020181863 1.0905979079056214, 0.9985936706441286 1.2076148402684328, 0.8683209968967417 1.2550302158507538 C0.7380483231493548 1.3024455914330748, 0.5560022933264157 1.3024455914330748, 0.4257296195790287 1.2550302158507538 C0.2954569458316417 1.2076148402684328, 0.1560015962939075 1.0905979079056214, 0.08668495441241975 0.9705379623568278 C0.01736831253093199 0.8504780168080341, -0.01424364879932095 0.6711976752333121, 0.009829768290102181 0.5346705425579924 C0.033903185379525316 0.3981434098826727, 0.12492620029099472 0.24048692339790811, 0.23112545694895853 0.15137516630490938 C0.33732471360692234 0.06226340921191065, 0.5777086663563973 0.02307244335669194, 0.6470253082378851 0 C0.7163419501193729 -0.02307244335669194, 0.6470253082378852 0.002156751027459639, 0.6470253082378852 0.012940506164757726" stroke="none" stroke-width="0" fill="#000"></path><path d="M0.6470253082378852 0 C0.7787269278127119 -0.008260835698882927, 0.9567259028688478 0.06226340921191058, 1.0629251595268117 0.15137516630490933 C1.1691244161847756 0.24048692339790806, 1.260147431096245 0.39814340988267277, 1.2842208481856683 0.5346705425579925 C1.3082942652750915 0.6711976752333122, 1.2766823039448383 0.8504780168080343, 1.2073656620633506 0.9705379623568278 C1.138049020181863 1.0905979079056214, 0.9985936706441286 1.2076148402684328, 0.8683209968967417 1.2550302158507538 C0.7380483231493548 1.3024455914330748, 0.5560022933264157 1.3024455914330748, 0.4257296195790287 1.2550302158507538 C0.2954569458316417 1.2076148402684328, 0.1560015962939075 1.0905979079056214, 0.08668495441241975 0.9705379623568278 C0.01736831253093199 0.8504780168080341, -0.01424364879932095 0.6711976752333121, 0.009829768290102181 0.5346705425579924 C0.033903185379525316 0.3981434098826727, 0.12492620029099472 0.24048692339790811, 0.23112545694895853 0.15137516630490938 C0.33732471360692234 0.06226340921191065, 0.5777086663563973 0.02307244335669194, 0.6470253082378851 0 C0.7163419501193729 -0.02307244335669194, 0.6470253082378852 0.002156751027459639, 0.6470253082378852 0.012940506164757726 M0.6470253082378852 0 C0.7787269278127119 -0.008260835698882927, 0.9567259028688478 0.06226340921191058, 1.0629251595268117 0.15137516630490933 C1.1691244161847756 0.24048692339790806, 1.260147431096245 0.39814340988267277, 1.2842208481856683 0.5346705425579925 C1.3082942652750915 0.6711976752333122, 1.2766823039448383 0.8504780168080343, 1.2073656620633506 0.9705379623568278 C1.138049020181863 1.0905979079056214, 0.9985936706441286 1.2076148402684328, 0.8683209968967417 1.2550302158507538 C0.7380483231493548 1.3024455914330748, 0.5560022933264157 1.3024455914330748, 0.4257296195790287 1.2550302158507538 C0.2954569458316417 1.2076148402684328, 0.1560015962939075 1.0905979079056214, 0.08668495441241975 0.9705379623568278 C0.01736831253093199 0.8504780168080341, -0.01424364879932095 0.6711976752333121, 0.009829768290102181 0.5346705425579924 C0.033903185379525316 0.3981434098826727, 0.12492620029099472 0.24048692339790811, 0.23112545694895853 0.15137516630490938 C0.33732471360692234 0.06226340921191065, 0.5777086663563973 0.02307244335669194, 0.6470253082378851 0 C0.7163419501193729 -0.02307244335669194, 0.6470253082378852 0.002156751027459639, 0.6470253082378852 0.012940506164757726" stroke="#000000" stroke-width="1" fill="none"></path></g><g><g stroke-opacity="0.3" fill-opacity="0.3" transform="translate(46.71237760931831 25.846978708446272) rotate(0 -15.663248517351576 40.70195882138401)"><path d="M-0.12512445151805873 0.9176007717847823 C-4.175027874311248 1.9283376935890453, -19.09902604251483 1.8125327201026562, -24.544411836269138 4.88940288351246 C-29.989797630023446 7.9662730469222645, -33.256762813011846 15.014437144285663, -32.797439214043905 19.378821752243606 C-32.338115615075964 23.743206360201548, -26.04027188075392 27.633144733625272, -21.788470242461507 31.075710531260118 C-17.536668604169094 34.51827632889496, -11.035311113956755 36.11163213538341, -7.286629384289432 40.03421653805269 C-3.5379476546221085 43.95680094072197, 0.24347917766978733 49.47717687301515, 0.7036201355424339 54.611216947275786 C1.1637610934150804 59.74525702153642, 0.49574958298937233 66.45614997370161, -4.525783637053553 70.8384569836165 C-9.547316857096478 75.22076399353138, -25.35295190794726 79.21342200206772, -29.425579184715115 80.90505900676504 M-1.6499535179045053 0.35373723163269455 C-5.304591693769956 1.1132086022871124, -16.976553169771446 0.23057291594586138, -22.3013585176997 3.0761435487899265 C-27.626163865627955 5.921714181633991, -33.65846926567024 13.122260870662181, -33.59878560547403 17.427161028697085 C-33.539101945277814 21.73206118673199, -26.641175959824235 25.102343930461252, -21.94325655652242 28.905544496999354 C-17.245337153220607 32.70874506353746, -9.440880644374898 36.164829321218285, -5.411269185663137 40.246364427925705 C-1.3816577269513761 44.327899534633126, 1.9448366126671226 47.94192162937662, 2.234412195748147 53.394755137243884 C2.5239877788291714 58.847588645111145, 1.2498839074897088 68.35412792948068, -3.673815687176991 72.96336547512925 C-8.597515281843691 77.57260302077782, -23.37904849690718 79.85497631789363, -27.307785372252056 81.05018041113533" stroke="#000000" stroke-width="1" fill="none"></path></g></g><g><g stroke-opacity="0.3" fill-opacity="0.3" transform="translate(45.653865751661215 24.246128785262158) rotate(7.909847431529921 -16.423284446864557 41.40803029126482)"><path d="M-0.11493119895458226 0.9560952633619306 C-4.369407709590131 1.6621743978550816, -19.58731802964929 2.4942855284114933, -25.21867615372857 5.3337275066916865 C-30.85003427780785 8.17316948497188, -34.246399556613895 13.683548920956273, -33.903079943430264 17.99274713304309 C-33.55976033024663 22.301945345129905, -27.722490335584894 27.519792226840565, -23.15875847462677 31.188916779212587 C-18.595026613668644 34.85804133158461, -10.427124546273253 35.815842822576585, -6.520688777681524 40.007494447275214 C-2.6142530090897957 44.19914607197384, -0.1133726889512297 50.74483413248439, 0.2798561369236009 56.33882652740434 C0.6730849627984314 61.932818922324294, 0.7851150236436766 69.23978900967211, -4.161315822432541 73.57144881679491 C-9.107746668508758 77.90310862391772, -25.121522741687375 81.09484291965566, -29.398728939533704 82.32878537014115 M-1.6344088077452035 0.4124413312878459 C-6.102357559245983 1.3099816602366205, -20.879590745208517 0.6480327688561385, -26.337631301879714 3.709771102801062 C-31.79567185855091 6.771509436745985, -34.86335605314132 13.99650504593814, -34.382652147772376 18.782871334957385 C-33.901948242403435 23.56923762397663, -27.89738133596563 28.926312848160798, -23.453407869666073 32.42796883691654 C-19.009434403366516 35.929624825672285, -11.890212797318226 35.95287663064961, -7.718811349975029 39.79280726749185 C-3.5474099026318324 43.63273790433409, 1.3955768042278682 49.975819380712935, 1.5750008143931078 55.467552657969975 C1.7544248245583474 60.959285935227015, -1.35596773674063 68.25386249882214, -6.642267288983591 72.74320693103411 C-11.928566841226552 77.23255136324607, -26.010127980473342 80.70136148223148, -30.142796499064662 82.40361925124179" stroke="#000000" stroke-width="1" fill="none"></path></g></g></svg>