<svg version="1.1" xmlns="http://www.w3.org/2000/svg" viewBox="0 0 320.5173483022048 210.67858148193216" width="320.5173483022048" height="210.67858148193216">
  <!-- svg-source:excalidraw -->
  
  <defs>
    <style>
      @font-face {
        font-family: "Virgil";
        src: url("https://excalidraw.com/Virgil.woff2");
      }
      @font-face {
        font-family: "Cascadia";
        src: url("https://excalidraw.com/Cascadia.woff2");
      }
    </style>
  </defs>
  <g><g transform="translate(335.6580674210709 62.743598763693285) rotate(0 -175.39939326996847 42.59569197727279)" fill-rule="evenodd"><path d="M-191.56186386460402 -28.830665204898235 L-201.6745966411472 -39.75727842066057 L-206.99528173128016 -42.80469265254065 L-222.22833261326787 -48.54222388015059 L-244.69382240990745 -51.52882574229602 L-246.3954128707935 -49.97220109395562 L-268.59810033785163 -33.71536542689909 L-272.5006544861469 -25.975887679854488 L-287.73090110905895 -22.479726105131306 L-296.48114424260575 -21.69637876171569 L-307.3590099607568 -15.53670083148512 L-312.037463990207 -10.035772206675155 L-319.92059578131494 1.074962839690182 L-324.6158724320007 8.852338633004518 L-323.75135733787397 49.57209664574097 L-306.85363219493354 69.87231343192855 L-297.0711055984992 76.44958012979052 L-301.2139322806273 87.3782686745521 L-300.2219069733859 101.41999397251732 L-295.6642286804927 108.93568974521315 L-289.92431440298583 117.40036720675327 L-282.1045564976247 123.66140018960547 L-273.6523599582914 129.20591072712733 L-245.2184441459287 131.69795013624366 L-218.70247207060825 123.16320774397519 L-187.04745625055523 133.99007277088273 L-183.53945274581923 135.24683590674854 L-162.29456905029957 132.37228626626865 L-157.8843400748978 128.69119670275956 L-150.67331274265615 126.60182380815701 L-147.39092000850758 117.34925088786363 L-138.62805261256005 129.7377498485569 L-112.62308231390656 137.62665843443574 L-95.29877105146831 137.3392899525282 L-84.1878161174219 131.7088860755374 L-72.85190598531867 121.66433077686676 L-62.179106040723866 101.38804502815037 L-61.53589090173263 93.64117582279987 L-63.136849121016745 70.00824214381223 L-40.150637849171474 61.76310591087122 L-26.865898601821808 36.46140452559937 L-25.29196422360561 13.387269587864338 L-31.274249140047353 5.532739119018658 L-33.83117265444992 -5.593155109388773 L-44.911673039711125 -14.287770041669454 L-54.12002117554495 -20.005535174353724 L-62.76077483852512 -24.57269479672238 L-71.28504101031294 -26.109128743915157 L-82.44728670535979 -21.536016124885556 L-103.12892896394665 -13.228564157330347 L-105.46160148525628 -12.70506529092869 L-115.9346684980576 -27.76922654190696 L-121.57735221205415 -34.492074564944055 L-129.79138042816305 -39.06175424847921 L-144.3520027264153 -43.13309516655815 L-157.63271972917286 -44.84972616704033 L-165.1261726837977 -45.84648528920657 L-173.9650330453207 -39.52723078283855 L-191.44725211972334 -28.40712806977403" stroke="none" stroke-width="0" fill="#fff" fill-rule="evenodd"></path><path d="M-190.12164129355887 -29.446938283965704 C-191.57344026050652 -31.368664596894096, -196.43835729241854 -38.33535423953886, -200.99239630692605 -41.26494523275264 C-205.54643532143356 -44.19453622596642, -210.2741818740128 -45.48648366884537, -217.4458753806039 -47.024484243248374 C-224.61756888719498 -48.562484817651374, -238.29713073958638 -50.91247035517307, -244.0225573464726 -50.49294867917065 C-249.74798395335884 -50.073427003168234, -247.6664484066494 -47.450335082860846, -251.7984350219213 -44.50735418723388 C-255.9304216371932 -41.56437329160691, -265.1413915366296 -36.419358995752326, -268.8144770381039 -32.83506330540885 C-272.4875625395782 -29.250767615065378, -270.81818297042673 -24.23696339482404, -273.8369480307672 -23.001580045173025 C-276.85571309110765 -21.76619669552201, -281.308915701614 -26.641506953181942, -286.9270674001468 -25.42276320750276 C-292.54521909867964 -24.20401946182358, -302.71091183644756 -19.339675283401153, -307.5458582219641 -15.689117571097938 C-312.3808046074807 -12.038559858794724, -313.22420154459144 -8.032749953578499, -315.93674571324607 -3.5194169336834724 C-318.6492898819007 0.9939160862115539, -322.4448199443592 5.919984071191361, -323.8211232338918 11.390880548272223 C-325.1974265234244 16.861777025353085, -324.0663367132207 22.75006141619172, -324.19456545044164 29.3059619288017 C-324.32279418766257 35.86186244141168, -326.062792049644 45.790284752326734, -324.5904956572173 50.726283623932105 C-323.1181992647906 55.662282495537475, -318.1529079343621 55.955320542489154, -315.36078709588145 58.921955158433924 C-312.5686662574008 61.888589774378694, -310.8381201799116 65.80077975272195, -307.8377706263336 68.52609131960074 C-304.83742107275566 71.25140288647953, -298.4270334783358 72.57267212804983, -297.3586897744137 75.27382455970667 C-296.2903460704916 77.9749769913635, -300.7472087130467 81.66943272613713, -301.4277084028011 84.73300590954175 C-302.1082080925555 87.79657909294636, -301.9855018207948 89.20194956113771, -301.44168791294015 93.65526366013431 C-300.8978740050855 98.10857775913091, -301.68075121083615 106.28736289633939, -298.1648249556733 111.45289050352133 C-294.6488987005104 116.61841811070327, -285.89923138576376 121.60114969826758, -280.34613038196284 124.648429303226 C-274.7930293781619 127.69570890818441, -270.36963766063013 128.37329011831858, -264.8462189328679 129.73656813327187 C-259.32280020510564 131.09984614822517, -252.59176061844298 132.86810045602792, -247.20561801538952 132.82809739294584 C-241.81947541233606 132.78809432986375, -237.62047225615805 131.01396095517796, -232.5293633145472 129.49654975477932 C-227.43825437293634 127.97913855438067, -221.03298457636896 123.96860380417316, -216.65896436572444 123.72363019055393 C-212.28494415507993 123.47865657693471, -211.0908572581977 126.24865678255915, -206.2852420506801 128.02670807306401 C-201.4796268431625 129.80475936356888, -192.59584514141562 133.47070720823848, -187.82527312061876 134.39193793358314 C-183.0547010998219 135.3131686589278, -181.69775677173155 134.00320224197907, -177.66180992589884 133.55409242513187 C-173.62586308006613 133.10498260828467, -167.9058386906872 132.75877526881936, -163.60959204562252 131.69727903249995 C-159.31334540055784 130.63578279618054, -154.5956870188505 129.18412625078855, -151.88433005551067 127.1851150072153 C-149.17297309217085 125.18610376364205, -149.6901862713946 119.33677737304039, -147.3414502655836 119.70321157106042 C-144.9927142597726 120.06964576908045, -142.07820724098917 127.17490074162896, -137.7919140206447 129.3837201953355 C-133.50562080030022 131.59253964904207, -127.73895882344432 131.53091787281585, -121.62369094351676 132.95612829329974 C-115.5084230635892 134.38133871378363, -106.70958410541014 137.82157984913414, -101.10030674107935 137.93498271823884 C-95.49102937674856 138.04838558734355, -92.20585539352581 135.70549627960952, -87.96802675753202 133.63654550792796 C-83.73019812153822 131.5675947362464, -80.08638547568931 130.96488831314986, -75.67333492511659 125.52127808814954 C-71.26028437454387 120.07766786314924, -64.26939388364087 107.76222332102438, -61.48972345409567 100.97488415792614 C-58.71005302455046 94.1875449948279, -59.053739418119534 89.82472958315978, -58.99531234784537 84.79724310956007 C-58.93688527757121 79.76975663596036, -62.58523177845866 73.74548129733463, -61.13916103245068 70.80996531632786 C-59.6930902864427 67.87444933532109, -54.08961913544874 68.55689275858995, -50.318887871797465 67.18414722351947 C-46.548156608146186 65.811401688449, -41.469982531154855 65.65192433207396, -38.514773450543004 62.573492105905004 C-35.55956436993115 59.49505987973604, -34.38246146981827 53.12554088417901, -32.58763338812638 48.713553866505706 C-30.792805306434488 44.3015668488324, -28.980315102283065 40.32527067044758, -27.74580496039167 36.101569999865184 C-26.511294818500275 31.877869329282788, -24.858152158415603 28.69873956128493, -25.180572536778 23.371349843011327 C-25.5029929151404 18.043960124737723, -26.74211497599298 10.065429320844402, -29.680327230566064 4.137231690223559 C-32.618539485139145 -1.7909659403972835, -37.341694996195514 -7.740391050590985, -42.8098460642165 -12.197835940713729 C-48.27799713223749 -16.65528083083647, -55.768430646495695 -20.719369417983835, -62.48923363869197 -22.607437650512903 C-69.21003663088825 -24.49550588304197, -76.23567407886196 -25.06824225867218, -83.13466401739416 -23.526245335888145 C-90.03365395592635 -21.984248413104112, -98.61677329614935 -12.824541396493881, -103.88317326988513 -13.355456113808703 C-109.14957324362092 -13.886370831123525, -110.10352624855611 -22.528607371705498, -114.73306385980892 -26.711733639777073 C-119.36260147106174 -30.894859907848648, -124.63618660201925 -35.35898538400867, -131.66039893740202 -38.454213722238144 C-138.6846112727848 -41.54944206046762, -149.60499334872512 -44.92294995473671, -156.8783378721055 -45.28310366915391 C-164.1516823954859 -45.64325738357111, -169.69345377743878 -43.08032791423017, -175.30046607768435 -40.615136008741345 C-180.90747837792992 -38.14994410325252, -187.72352036802732 -32.43791581920625, -190.520411673579 -30.491952236220953 M-190.98853184480183 -30.22073733372685 C-192.52237778366663 -32.021845059518974, -197.4321079675343 -36.994192751151125, -202.02632732721946 -40.109225814729854 C-206.62054668690462 -43.22425887830858, -211.56797590971948 -46.80838126546912, -218.5538480029128 -48.91093571519924 C-225.5397200961061 -51.01349016492935, -238.16601736455218 -53.00874408011274, -243.94155988637925 -52.72455251311053 C-249.71710240820633 -52.44036094610832, -249.21542496965978 -50.4180081561787, -253.2071031338752 -47.205786313185975 C-257.1987812980906 -43.99356447019325, -264.5583136628371 -37.34731315801844, -267.8916288716717 -33.45122145515417 C-271.22494408050625 -29.555129752289904, -270.4035497176011 -25.025216250866276, -273.2069943868827 -23.82923609600038 C-276.0104390561643 -22.633255941134482, -279.24252971639226 -27.403614315836, -284.71229688736105 -26.275340525958782 C-290.18206405832984 -25.147066736081566, -300.4054145105839 -20.83825851726054, -306.02559741269533 -17.059593356737075 C-311.64578031480676 -13.280928196213608, -315.53548317120715 -7.9781483187445374, -318.43339430002965 -3.6033495628179786 C-321.33130542885215 0.7714491931085803, -322.2393048741927 3.817936075359545, -323.4130641856303 9.18919917882228 C-324.5868234970678 14.560462282285016, -325.3051435108779 21.73713170732718, -325.4759501686549 28.624229057958438 C-325.6467568264319 35.511326408589696, -326.08276864984765 45.47981632130472, -324.4379041322922 50.511783282609834 C-322.79303961473676 55.54375024391495, -318.40454179820233 55.97707910967709, -315.6067630633222 58.816030825789134 C-312.8089843284421 61.65498254190118, -310.80032345109566 65.16667642422945, -307.6512317230115 67.54549357928211 C-304.50213999492735 69.92431073433477, -297.5588031394382 70.07936105197871, -296.7122126948173 73.08893375610506 C-295.8656222501964 76.09850646023142, -301.6661617417591 82.15778374883139, -302.57168905528613 85.60292980404024 C-303.4772163688132 89.0480758592491, -303.203285346176 89.34339588343353, -302.1453765759795 93.75981008735815 C-301.08746780578304 98.17622429128276, -300.0053276695623 106.70712372981511, -296.22423643410707 112.10141502758792 C-292.44314519865185 117.49570632536073, -285.02403867837785 122.8383279214938, -279.45882916324825 126.12555787399498 C-273.89361964811866 129.41278782649616, -268.18962430779266 130.887844933108, -262.83297934332944 131.82479474259503 C-257.4763343788662 132.76174455208206, -252.4262959171816 132.28469504368553, -247.31895937646888 131.7472567309172 C-242.21162283575617 131.20981841814887, -237.01313143611748 130.11268513275084, -232.1889600990532 128.60016486598505 C-227.3647887619889 127.08764459921925, -222.39820895606118 122.77257168070061, -218.37393135408308 122.6721351303224 C-214.34965375210498 122.5716985799442, -212.8174894012519 126.1284794153227, -208.04329448718462 127.99754556371579 C-203.26909957311736 129.86661171210886, -194.94753901282806 133.04584025901178, -189.72876186967954 133.88653202068093 C-184.50998472653103 134.72722378235008, -181.34026289411577 133.080168633278, -176.73063162829348 133.04169613373062 C-172.1210003624712 133.00322363418326, -166.28116430052393 134.90626284015195, -162.07097427474577 133.65569702339678 C-157.8607842489676 132.4051312066416, -154.13313122273763 128.02496041490508, -151.46949147362454 125.53830123319955 C-148.80585172451146 123.05164205149401, -148.31425020229725 118.37676877218327, -146.0891357800672 118.73574193316355 C-143.86402135783717 119.09471509414384, -142.16337921448957 125.06856790378284, -138.11880494024436 127.69214019908122 C-134.07423066599915 130.31571249437962, -127.71137449399195 132.8040848679575, -121.82169013459605 134.47717570495388 C-115.93200577520015 136.15026654195026, -108.19556162257166 137.76084894548256, -102.78069878386896 137.73068522105947 C-97.36583594516625 137.70052149663638, -93.59730555823505 136.4345955998759, -89.33251310237985 134.29619335841534 C-85.06772064652465 132.15779111695477, -81.9230968964973 130.30789449078756, -77.19194404873772 124.9002717722961 C-72.46079120097815 119.49264905380461, -63.77819313296582 108.19365915647899, -60.94559601582239 101.85045704746648 C-58.11299889867896 95.50725493845397, -59.764526188496845 92.15653670011903, -60.196361345877136 86.84105911822101 C-60.62819650325743 81.52558153632299, -65.06388903879092 73.16086779897842, -63.536606960104145 69.95759155607838 C-62.00932488141736 66.75431531317835, -55.037798287255725 68.92105588384044, -51.032668873756464 67.62140166082078 C-47.0275394602572 66.32174743780112, -42.601763564823514 65.23964811184544, -39.50583047910855 62.159666217960456 C-36.40989739339359 59.07968432407547, -34.53788812085277 53.46566879762797, -32.457070359466705 49.141510297510855 C-30.37625259808064 44.81735179739374, -28.105805007554743 40.4320533012227, -27.02092391079217 36.214715217257776 C-25.936042814029598 31.99737713329285, -25.53378201241298 29.04005725377709, -25.947783778891264 23.837481793721295 C-26.361785545369546 18.6349063336655, -26.605780687071775 11.007889836436648, -29.504934509661865 4.999262456923022 C-32.40408833225195 -1.0093649225906045, -37.590146842828624 -7.729479877273405, -43.3427067144318 -12.214282483360465 C-49.095266586034974 -16.699085089447525, -57.2251834335232 -19.953152022823485, -64.02029373928092 -21.909553179599342 C-70.81540404503863 -23.8659543363752, -77.56579229374114 -25.684592691809446, -84.11336854897809 -23.95268942401561 C-90.66094480421503 -22.220786156221774, -98.18853126520466 -11.40346566607696, -103.30575127070257 -11.518133572836323 C-108.42297127620049 -11.632801479595686, -110.19694329322922 -20.22277078764039, -114.8166885819656 -24.640696864571787 C-119.43643387070196 -29.058622941503184, -124.118437195119 -34.85736490170919, -131.02422300312082 -38.02569003442471 C-137.93000881112266 -41.194015167140236, -148.92269227067754 -43.1576115188745, -156.25140342997653 -43.650647660864905 C-163.58011458927552 -44.14368380285531, -169.46181627253702 -43.10632880248466, -174.99648995891485 -40.98390688636714 C-180.53116364529268 -38.86148497024961, -187.03239730068185 -32.53633198601471, -189.45944554824345 -30.916116164159742" stroke="#000000" stroke-width="2" fill="none"></path></g></g><g><g transform="translate(347.0030692197656 43.30715365156027) rotate(0 -198.36546172981946 30.561359031671486)" fill-rule="evenodd"><path d="M-219.77575023334282 1.0787390641212369 C-219.77575023334282 1.0787390641212369, -219.77575023334282 1.0787390641212369, -219.77575023334282 1.0787390641212369 M-219.77575023334282 1.0787390641212369 C-219.77575023334282 1.0787390641212369, -219.77575023334282 1.0787390641212369, -219.77575023334282 1.0787390641212369 M-236.49673371702576 24.027292074704107 C-228.4231667728827 20.95990336826712, -226.4084383618835 9.949071501728408, -210.714984517287 0.059875252707541904 M-233.737770294176 25.95067645616227 C-226.05579328942827 16.227080540617898, -220.7508912219757 6.812963965318385, -213.6356377245146 1.2089091698216805 M-241.3309910672589 30.291269182377803 C-225.9420318835044 24.65817162717553, -224.16218219442462 14.569642444194074, -208.7914741629446 1.967544154299759 M-237.9837728946342 31.859679949620116 C-228.0995513563296 23.716585654540314, -219.18556329540814 14.01846676006015, -209.59724412613457 2.6456510117634764 M-236.38233328395665 40.61087332868925 C-226.16255244335582 23.328234593315848, -213.56098089992315 7.410361776850905, -207.01132418268787 -1.6535024142233397 M-236.44582085655213 36.002256572413955 C-223.34838677494764 24.29327106892384, -216.14470656797246 14.026338323027176, -201.91619825230407 1.1702831422569488 M-232.09735271623055 38.56760439760811 C-225.39275678248657 26.398326922505028, -210.64242390877646 13.761112759529162, -194.5841824726948 -0.3367628804515448 M-232.60633416576007 41.524054157732195 C-221.27318515415197 26.44022815565544, -211.24534720135532 14.451193504854306, -198.83602251091986 -0.907248042068943 M-229.15482920227765 45.399794801099134 C-220.48204857690737 28.077079402070787, -208.70599450669116 24.171530150713846, -195.7314156791434 -2.2915169219745337 M-229.75609217217385 41.83497494175835 C-219.7747587529981 33.087626974166064, -212.8295689207127 27.417883082107068, -191.87562993487867 0.34214448041487344 M-230.21343841726642 46.934124441795376 C-214.91217536807065 31.127308642125403, -196.37747534394765 8.600127166601077, -187.5929321112402 -2.791954207050381 M-225.92944193768065 47.72819052634421 C-216.31903660350116 35.19651332711225, -204.74953242142885 19.434360525263546, -186.92364709510582 0.2650596156690739 M-227.85039769939385 46.9323632316615 C-210.7091790283453 34.60115979215357, -196.56443067228724 18.05651550942862, -180.03853591516312 2.2260830867311796 M-223.03044406219624 50.91438439767319 C-211.69216654898608 35.513078402424036, -198.70624122610175 17.531379532556855, -183.23726827449795 0.21636563532267417 M-219.06070216584743 51.985209412885055 C-213.71329477235884 40.16547401548764, -206.26894562193556 31.837239659359504, -174.23080901608074 0.5306811120032222 M-224.51960879962684 53.1030902471516 C-211.32074959185442 39.01861769347259, -200.57219508779025 28.956025574617215, -177.1926374099424 2.1122810162274988 M-220.47606568381474 56.632579977653535 C-212.9387490949606 44.400930529809436, -197.90944171635726 29.284909207505635, -173.1879930601711 7.959435191176013 M-219.82033702887878 57.31048239118567 C-210.49031562534958 42.94593904122884, -201.14550791557434 30.84952050007399, -176.03523003433594 4.9834552800125635 M-215.58386184149268 56.483901087931656 C-203.91347721489444 44.38916552097748, -192.83588959491107 32.88530695317472, -171.69081232765006 4.030321075768697 M-218.72536122486773 57.16716619095888 C-207.11507985767759 48.3717449784836, -193.99844736867817 35.591655173418346, -172.97417618961322 6.773340252415764 M-213.8824190930403 61.866655976575274 C-205.56059245027592 52.470757383197345, -199.4742668608315 42.67385529484193, -173.40594596469575 7.854371588191597 M-215.73954060347148 64.75422595354583 C-207.30204920067067 50.74838246647374, -193.83083188040754 39.533882892585765, -171.49323265867108 12.438366705066173 M-212.91513532372105 60.38074124398965 C-197.69036035033503 53.474685350761305, -187.6244736060849 34.78336260529494, -170.1686147805146 18.727709560186625 M-211.3014756866722 61.34508122857052 C-198.6937527364946 48.80887299114083, -188.4704550074913 38.05946612053541, -169.8208697624347 16.72747729392445 M-207.203012603656 62.39591594392172 C-193.53467674818842 43.01743535641272, -172.05198914575246 31.470326262740826, -165.79393542128463 18.534805314164103 M-205.90354305630976 65.09043589399866 C-195.01240635130458 53.02447487618542, -187.52289212321404 40.267723787094276, -167.9291255338009 18.772884040619672 M-200.3742404920516 64.81377165811345 C-194.28060091715145 55.31082447864524, -180.7768099318596 46.94211927303883, -165.9837432831838 19.35934792253427 M-199.40897865830934 62.967748230790946 C-189.37781058304859 52.10640139661911, -179.8058621682832 36.903094467197604, -162.62792863066636 23.888439591780823 M-197.56796341407636 62.753957039197886 C-183.1886949162172 55.7024672716001, -172.53752936702222 39.92713355744563, -164.23341542541866 27.095116467039063 M-192.6431451795582 64.65495546579918 C-186.8579224860084 55.67517035584225, -180.37461732449225 48.57806950918649, -160.65942124895636 27.368008478368594 M-188.0608084289368 65.39150116891696 C-180.57895908621012 51.33773909559742, -168.39746117376342 38.67376588111958, -161.64322474416718 31.849237520088806 M-189.2075598159816 62.55529712998404 C-179.4327658880742 53.14333366653212, -170.6360791688908 41.46805393202192, -159.69681329656765 31.076224597012057 M-182.39035746180144 63.869490199903716 C-174.14859656424846 55.195112234336825, -166.22459010342791 43.7590651845499, -160.16910385661689 34.79834682387095 M-181.7908665044668 61.89749170019733 C-178.1175957748028 54.75869856838081, -171.25240347004353 51.56780872548303, -156.78264627740649 34.49215288911741" stroke="#fab005" stroke-width="0.5" fill="none"></path><path d="M-178.20255348593315 -2.4235290996731607 C-193.27739704847627 3.633898202470456, -205.62658787783334 3.1729480490418993, -219.46116419960774 4.7965181841024815 M-216.56730012674845 -1.4908208252420962 C-227.03894307597383 4.969515207758757, -228.05156447729868 17.226370477757584, -237.05478234216582 32.20706060576239 M-239.8807582743467 35.522838302431495 C-227.5624390806206 43.81942160468695, -222.5805096286634 52.02194894041632, -218.41352518526094 63.54624716301609 M-217.61808960017936 60.01737463583399 C-201.67345305216963 63.9901486407068, -194.93970441309543 57.877992368772375, -181.28267585242247 59.586789609093216 M-176.85911932343697 61.08400026817992 C-171.04022888341055 49.3983227770893, -162.23767907484395 38.43902851404211, -163.045806620975 30.413754935635282 M-156.8501651852922 28.22149677879925 C-162.9914523760591 21.383105108267507, -170.23346936933893 10.581080450494447, -180.10504346847853 2.4825234524904403 M-177.65724836424312 -1.2789769243681803e-13 C-177.65724836424312 -1.2789769243681803e-13, -177.65724836424312 -1.2789769243681803e-13, -177.65724836424312 -1.2789769243681803e-13" stroke="#e67700" stroke-width="1.5" fill="none" stroke-dasharray="3 6"></path></g></g><g><g transform="translate(283.1335797017308 85.70651078254048) rotate(0 -199.48726692085972 31.223277355159127)" fill-rule="evenodd"><path d="M-219.77575023334293 1.0787390641211374 C-219.77575023334293 1.0787390641211374, -219.77575023334293 1.0787390641211374, -219.77575023334293 1.0787390641211374 M-219.77575023334293 1.0787390641211374 C-219.77575023334293 1.0787390641211374, -219.77575023334293 1.0787390641211374, -219.77575023334293 1.0787390641211374 M-234.52334746658957 25.35498688563092 C-224.4508112744818 14.136095482873426, -222.36004052896308 10.9189719388355, -214.75693740297447 2.9521302385763732 M-232.5999630851314 25.042464252629713 C-228.76081263751857 16.91445138885438, -224.58831055020352 12.369365652373137, -213.60790348586033 -0.031656744839111184 M-240.5616856369063 37.433697736972235 C-229.31602228884202 22.70348301393753, -222.4701548020302 15.177189079523142, -208.22236046881335 1.6546735698713633 M-238.993274869664 34.18984329063561 C-226.9407529829064 23.000870843979364, -216.50988557856667 10.449559308515909, -207.54425361134963 2.5507902009769055 M-231.25824789487908 33.33668949658018 C-227.93247661430496 26.222313277442595, -223.1992248631193 17.35511667437029, -205.8057303955543 1.5641963163049155 M-235.86686465115437 38.797247331756765 C-224.47467447173872 23.204406903045147, -211.66947743443183 12.74617883613946, -202.981944839074 0.5167931763113671 M-234.31768323024443 36.99336243904946 C-225.71444898751747 30.944700006347542, -217.4848303363094 22.425447684915973, -198.4513142200003 1.3466629409122959 M-231.36123347012034 39.77973338886915 C-224.9083545138939 28.67950649037995, -215.3396060574799 19.790983814993112, -199.0217993816177 -0.5425734925192103 M-227.09089062182437 41.77901186696981 C-225.30769867867195 34.60050332394903, -210.1230835409209 21.307990592002053, -195.7791602289544 -2.9686808432712155 M-230.65571048116516 44.359581627843724 C-222.16089539600418 34.079739974014686, -210.63827421610475 24.83289127104559, -193.145498826565 2.5008738958017034 M-226.57272738541235 43.696343073599266 C-208.3139584782746 28.829608185814728, -196.8548387769129 10.056638817648576, -190.24192087224807 -0.1284368138786931 M-225.77866130086352 46.06031033021979 C-210.47580327753528 28.987698330163294, -198.52231430876833 13.120917275448988, -187.18490704952862 0.9857996769222837 M-227.59065499983046 48.972213861527536 C-210.8022289090313 35.14313008876899, -198.3548071934178 23.888666582816448, -179.18620693668433 0.9982032421251716 M-223.60863383381877 49.11591841186831 C-207.16948851778682 29.376075349847284, -193.39370818787756 11.855751671678426, -181.19592438809283 -2.072893697840911 M-223.5539752228911 53.20147286356712 C-208.34601309062336 31.666125182460455, -189.55473042317652 17.4298486260779, -177.66546948805666 -1.9649616320016037 M-222.43609438862455 54.42722374388302 C-209.04669837312858 37.66089250356532, -191.5125676778941 17.729109814175395, -176.08386958383238 -0.5559848219486128 M-219.92277106240687 52.717249962530545 C-209.8743986434622 45.53610372448691, -202.75613763072224 33.99236383386574, -171.2528818131681 1.7144392767762895 M-219.24486864887473 55.744653572357706 C-206.51055990425075 37.12258885380117, -191.44120625484635 20.736446771988405, -174.22886172433155 4.188147505915737 M-219.67684774719964 59.96124671100753 C-199.75382848941155 38.18445352457292, -179.32050615545802 20.67698696811061, -176.19816233285962 5.738219610602997 M-218.99358264417242 57.85103493816334 C-201.4575793299246 45.06839476719067, -187.96236859267563 28.463843877258295, -173.45514315621256 6.016895541177533 M-216.72102787205358 63.382284232478895 C-201.81573162042287 44.156549413709605, -187.20281300504564 29.556507967481508, -174.80104683393424 8.940312582513798 M-213.83345789508303 61.272642578061976 C-202.03797373942274 48.59957554225609, -187.5522664748617 30.37438793296976, -170.21705171705966 10.968599235153306 M-212.169265962857 64.24065951797495 C-194.58501717730718 50.095340788561444, -188.6852450885275 33.21103161689375, -164.94387526622342 14.128803914875661 M-211.20492597827612 61.89605522136519 C-201.34262661189825 50.59403185494257, -189.66714397527778 40.28496455636623, -166.9441075324856 16.917079173491274 M-205.527183230356 60.355594511867594 C-192.2825988920829 49.626209936457855, -171.23279046798007 28.36075530412017, -166.15294591653017 16.739189320723867 M-202.83266328027906 63.52810467572613 C-190.07012465685725 46.07111741350832, -178.01107179797216 30.610379250374336, -165.9148671900746 17.037394057507967 M-197.07165087438213 60.11720618652379 C-186.1880794252029 52.87974376041762, -174.17023633046853 34.90068562738573, -167.75533832165752 22.695245763093652 M-198.91767430170464 62.720345901792996 C-184.72790657908718 46.8758077688536, -174.83726708774992 34.38044336677903, -163.22624665241096 22.479211963519873 M-194.5045574607288 64.42273108520162 C-182.91270365165667 57.2554122492541, -180.12433514142216 43.19755337822791, -161.03573618143693 22.269902714352 M-192.6035590341275 63.517781556105135 C-185.74117265641814 53.446429984414884, -177.0306609346022 44.96266439833546, -160.7628441701074 27.040181602175224 M-185.82933668922755 60.76384868026797 C-179.19254035068803 52.22774977317932, -171.09163262047875 39.36967579946277, -157.29778153267142 30.738499637534176 M-188.66554072816047 62.358685349310676 C-177.7484054655655 51.1335749700112, -169.1603596200913 41.55265558803506, -158.07079445574817 28.631689799790536 M-182.7244396256719 65.38935801498093 C-177.0447011499335 58.841224302814034, -174.13262826561706 44.904340874961, -155.36483863317346 29.48494766545268 M-184.69643812537828 63.04977868794896 C-176.421713632348 53.58281248652323, -164.2250309972908 42.680937745316484, -155.671032567927 33.19752317745956" stroke="#fab005" stroke-width="0.5" fill="none"></path><path d="M-180.08077746391643 -2.173170316964004 C-191.3785306291746 -0.7065417016282192, -208.84064577391888 1.2045027776684645, -216.2326984860478 -1.9350225330815363 M-222.5200374953924 -2.076342605196004 C-230.0152925644473 12.769332505359248, -231.7095172314913 26.219729172135843, -238.83667110279234 34.65469641285914 M-235.52089340612324 34.55989232706803 C-231.57699247412646 40.58234013459487, -227.2858143962362 48.79883023893123, -214.53079478320888 62.825484634537744 M-218.05966731039098 64.61972502728229 C-201.5509025370462 59.87927682922535, -195.8123899914846 59.98387427852783, -181.37009349221464 63.84989921112721 M-179.87288283312793 63.70562398542826 C-173.98522747484327 54.58696671768564, -167.38260897592602 36.24776508272813, -160.13786273892708 31.772885280920548 M-162.33012089576312 33.279396648778004 C-164.85363965752086 23.22722434579329, -170.8580911473679 10.94832197831278, -175.17472491175283 1.8895751722160838 M-177.6572483642434 3.836930773104541e-13 C-177.6572483642434 3.836930773104541e-13, -177.6572483642434 3.836930773104541e-13, -177.6572483642434 3.836930773104541e-13" stroke="#e67700" stroke-width="1.5" fill="none" stroke-dasharray="3 6"></path></g></g><g><g transform="translate(352.2934376346846 111.18653173789949) rotate(0 -196.87803020363538 31.438643903014736)" fill-rule="evenodd"><path d="M-219.77575023334282 1.0787390641212369 C-219.77575023334282 1.0787390641212369, -219.77575023334282 1.0787390641212369, -219.77575023334282 1.0787390641212369 M-219.77575023334282 1.0787390641212369 C-219.77575023334282 1.0787390641212369, -219.77575023334282 1.0787390641212369, -219.77575023334282 1.0787390641212369 M-233.19565265566254 26.511205138707098 C-231.16404293112313 15.75899664205015, -221.16164806711188 12.355430060944204, -211.86468241710543 -1.0074468822640767 M-233.50817528866375 24.73118753738099 C-228.73406184293148 15.350037127679984, -220.35461299702754 8.360569756478863, -214.8484694005209 0.6110766688870797 M-233.4192570823117 33.60245656889056 C-228.13481935031305 20.676444190893015, -215.73076565455182 11.144370024624507, -208.53523105324155 3.078692630900406 M-236.66311152864833 33.50447745356833 C-230.19152795086646 27.31213971579464, -225.10890499694293 21.185891822715462, -207.639114422136 -0.47540727347288225 M-238.53243172698797 37.208929764274274 C-226.6310751959531 21.79784710666097, -216.51542315905888 8.98099771762275, -202.58803166502582 3.099617650512073 M-233.07187389181138 35.79619157331041 C-227.02787230533013 27.743635535955498, -215.91803285779065 18.157870376538444, -203.63543480501937 -0.0973529780624176 M-235.89192518880287 38.759780858827895 C-217.88094994969208 22.54223453023865, -202.32662319057187 8.740504114965706, -196.76788839863627 -2.0055140010188666 M-233.1055542389832 39.67189960479564 C-223.3354791773868 27.526816067038943, -211.35242906450833 13.038659455566936, -198.65712483206778 -1.3373921732525673 M-230.7116735559535 38.96599851451619 C-218.09047775871738 33.51405486901208, -211.5706635847007 15.355283410960848, -196.45632415025088 -2.34832575128209 M-228.13110379507958 41.648925659207535 C-219.48911339325826 34.480913203179966, -209.82210126627638 21.44087532573246, -190.98676941117796 2.5284840375857414 M-229.81050875360827 48.751918883972195 C-217.0030513263673 33.46282600509684, -208.19102296697224 21.553088415157156, -187.5784034790762 2.5196489814643286 M-227.44654149698775 47.81536321339789 C-220.0887888373339 35.61099595556309, -211.44579705261154 27.187285857478397, -186.46416698827522 -0.17070356458681601 M-225.55080436996423 50.60196812916058 C-216.56629330415947 41.42824380933465, -205.10365908013296 32.49495490924386, -180.41408678129014 2.0102242696306547 M-225.40709981962345 51.36431762855011 C-217.37349326474677 37.46301844246716, -206.99953742825895 25.935137984272178, -183.48518372125622 1.0898351668587765 M-222.33771177220882 51.454500742268905 C-208.44399397353124 34.903172318883065, -187.1333518945853 14.569414684465016, -180.16111223206127 2.864142515849963 M-221.11196089189292 51.67524447107051 C-201.95039622505618 33.09083919138934, -186.09015835870122 13.503955958323786, -178.75213542200828 -0.41625941622565676 M-223.83810107752964 55.82208996548465 C-206.8598548999258 38.50468673785751, -194.25493619479084 32.234796726618164, -177.49787772756764 5.516655292532519 M-220.81069746770248 55.62173993236533 C-206.46953647392334 37.1592156878913, -189.869285767828 20.27925720547031, -175.0241694984282 5.8865840827889 M-216.1995021241236 58.91181821077254 C-207.90745918310526 50.7179246998719, -195.29383296534024 31.28805279367114, -174.49026379802513 7.708394601197469 M-218.3097138969678 60.87933124861803 C-204.0601635337998 48.55692825848021, -193.73874983523146 32.421209509095924, -174.2115878674506 7.674239364640343 M-215.20539961614975 64.27382496098842 C-202.15418462253433 46.29323020511626, -184.4251966237049 20.35906548039491, -173.71510583961182 12.398049514255135 M-217.31504127056667 61.76152460190322 C-203.82459104229966 49.99008156704157, -195.90668224344978 39.98800928745143, -171.68681918697231 11.823059075957744 M-208.3093476888715 66.35566306653756 C-192.3646335874057 42.2468993238854, -179.25595951821828 30.526880118028735, -169.54278091153418 12.354399113447428 M-210.65395198548126 61.961661416844905 C-197.71724449002045 49.50039700014934, -183.88139140676319 34.31182050769466, -166.75450565291857 17.189407747701765 M-207.56750466240996 59.9997478311669 C-189.7217916404662 53.39042500565027, -182.4819343771077 38.48607770557135, -167.94856190997024 20.559569971184672 M-204.39499449855143 64.23786744640879 C-195.04729456181076 49.14275547919303, -183.76728283087937 36.791837079631684, -167.65035717318614 19.200419276501478 M-201.76821634597158 64.2053270866184 C-185.32134840832435 52.36649751353767, -179.64776805000383 34.993508708305015, -164.41944048109792 25.819907409877104 M-199.16507663070237 64.36252284655556 C-188.04522386097125 47.40727725383791, -173.58911259082663 36.52656092934315, -164.6354742806717 21.65236818398587 M-192.83578341472486 65.8147057355251 C-183.8122209753808 52.68641543247114, -181.76120570848238 48.03323287110432, -165.8609499341238 24.376846761266663 M-193.74073294382134 62.995986719137036 C-185.8926488084934 53.17208378311675, -176.38293330584708 44.29903652412244, -161.09067104630057 26.509040876115634 M-190.45698917787632 63.350569109628935 C-177.23530941356267 49.00996420164689, -168.32538116926156 39.05613981027446, -158.40851941522584 30.310170847763672 M-188.86215250883362 63.71142047011389 C-182.93511138036527 55.63399245977229, -175.39320833018462 49.42956364763473, -160.51532925296948 28.49249312451984 M-181.20457181059447 62.928659611562956 C-172.538849400588 50.331251762966446, -171.23909831405018 47.22480451207977, -160.67823779159156 34.39417166155558 M-183.54415113762644 61.09496445133792 C-175.8564930362644 56.65101670617065, -169.53453064488858 48.85459856416644, -156.96566227958468 32.12671174560469" stroke="#fab005" stroke-width="0.5" fill="none"></path><path d="M-179.8304186812075 2.8956298120318564 C-193.1943656394546 1.9514167726333425, -206.22575938495407 3.917418724516621, -222.9642392032317 3.863018251813358 M-223.10555927534617 -1.798182785653168 C-225.09423536099163 12.50322727222094, -228.65814797264986 19.630215687199357, -236.38903529569518 32.48274079012671 M-236.4838393814863 32.194715567408 C-234.2967026345194 36.406452395368895, -229.78426763905313 48.406713345130115, -215.25155731168763 62.89747241993595 M-213.4573169189431 64.67547059168268 C-203.9447747382874 58.95493852311789, -189.27751988062977 59.978413812462776, -177.10698389018035 64.4134989987798 M-177.2512591158793 60.104079284865406 C-169.67139996614608 50.738113273059106, -171.19275186125583 43.31198310776301, -158.77873239364192 30.353782530201627 M-157.27222102578446 31.16402037747021 C-165.43321603381025 19.29683992037174, -175.12906149837255 11.541321231752853, -175.76767319202742 3.6831380240617904 M-177.65724836424312 -1.2789769243681803e-13 C-177.65724836424312 -1.2789769243681803e-13, -177.65724836424312 -1.2789769243681803e-13, -177.65724836424312 -1.2789769243681803e-13" stroke="#e67700" stroke-width="1.5" fill="none" stroke-dasharray="3 6"></path></g></g><g><g transform="translate(413.0685451799396 75.96125862366955) rotate(0 -199.11830671911923 31.347698951685743)" fill-rule="evenodd"><path d="M-219.77575023334282 1.0787390641212369 C-219.77575023334282 1.0787390641212369, -219.77575023334282 1.0787390641212369, -219.77575023334282 1.0787390641212369 M-219.77575023334282 1.0787390641212369 C-219.77575023334282 1.0787390641212369, -219.77575023334282 1.0787390641212369, -219.77575023334282 1.0787390641212369 M-232.03943440258647 22.322499373996195 C-232.16680514917027 21.534527925247865, -224.94634197503387 14.551171546695828, -215.82425953794598 2.2453530235725054 M-233.81945200391257 23.09286576143795 C-228.4793910521234 16.505501939134994, -220.69044274336255 7.416717405334374, -214.20573598679482 1.9956906410443196 M-237.25049825039346 31.760032094233978 C-232.58472272096216 26.784672596056254, -224.59299693763396 20.529962093332415, -207.1112119922126 -2.0972124402985344 M-237.3484773657157 34.21015637476121 C-228.70637009060377 24.132213316048688, -220.06761731416037 17.372907492819607, -210.66531189658588 1.9463035567089548 M-234.66019145929397 34.11889162117592 C-229.30418924530602 24.314249929377485, -221.26551934938243 19.127596480357248, -201.05261033081877 -0.5771588405934835 M-236.07292965025783 35.833675604481016 C-227.16697884883598 29.61990015511725, -219.83559678279912 19.663584854476237, -204.24958095939326 2.4536292401733135 M-234.12550676902453 41.543321979416675 C-223.79621475747976 31.563805010987252, -211.09521018359783 16.846934653841355, -200.12006534056752 1.061322035722867 M-233.21338802305678 38.42730858847327 C-222.14508987533685 27.39477598287172, -213.35349414207133 15.525180041563381, -199.45194351280122 -0.029929857246145275 M-233.5246869084072 43.998462221546006 C-215.52782375759435 27.06005164531857, -210.16815542359393 13.173188063513095, -195.83596905826184 -1.18768034831416 M-230.84175976371586 43.57466361760898 C-216.421101810407 30.957543437177378, -207.93013929578262 19.472195673343474, -190.959159269394 -0.7023619092328488 M-224.75493294323545 46.45186139082196 C-220.2459045987273 36.007523464705685, -212.33717231694595 25.622708315532055, -184.93031768373328 -3.730924020337639 M-225.69148861380975 45.97308709842744 C-214.07469033375818 29.793969844089013, -198.58875321253853 13.404769492729855, -187.62067022978442 -1.7386744551386215 M-223.92105010233126 48.4702210398342 C-213.16172185510408 40.07638900647941, -202.2499994557641 28.44876358490507, -179.40206575378474 -2.722757017312304 M-223.15870060294174 47.842906071799575 C-208.36599176322275 28.646189903824617, -191.11667986605048 8.833079920047894, -180.32245485655662 1.1748630813530525 M-224.08468389350713 51.36323355139528 C-203.9669669252495 35.86769161385279, -187.66675204553027 9.806820586553911, -175.3320080842098 4.550463454019919 M-223.86394016470553 54.883766533819184 C-213.07008463028475 42.01448423429086, -203.2727599075073 30.029956422689278, -178.61241001628542 0.2688002317814977 M-220.73326107457564 57.55387255831769 C-210.96238200929287 43.7197309546534, -190.13589247482204 24.197944466186925, -173.6956617118115 6.285951856694297 M-220.93361110769496 54.457423855580004 C-206.92541471841233 39.03762878231919, -191.27231400320034 23.54002177892015, -173.32573292155513 3.11858632246323 M-217.24893062435868 57.94868336319115 C-197.92258376212135 42.252743974838495, -189.91724225577627 22.05831328794534, -172.52008880743074 6.025365582854974 M-215.2814175865132 59.770533202953004 C-204.37894758626666 47.76281187410823, -197.41401222069595 35.19264411482929, -172.55424404398786 9.317941733823645 M-214.31385888764032 59.83633083949651 C-197.58478877882368 43.13027300171327, -188.85241931524936 25.43290499450478, -170.25736890787059 8.817481595537274 M-216.82615924672552 64.58569743770029 C-204.47243302101765 48.70616160793591, -190.24189234125873 33.89763139649904, -170.83235934616798 13.454034542179315 M-206.19434414030897 63.691955728264034 C-202.9373786034543 50.19155750813872, -187.3655402863954 40.265688779185325, -171.3171857129625 16.060229367108107 M-210.58834579000163 60.83832341413337 C-198.40847652990652 51.078052936110595, -189.04372927598894 43.468813095975904, -166.48217707870816 14.762013458178401 M-207.92335134311074 66.92462372386566 C-192.86172665045677 53.267381812912696, -186.11614229404552 40.42381508065773, -164.12818125950952 18.153948360602797 M-203.68523172786885 61.19657106490544 C-196.5361922548613 50.21512297359622, -186.52815956931508 39.58124017307498, -165.4873319541927 18.590765308137478 M-197.68009544587707 65.88929554866836 C-188.19502241887585 50.796047370810584, -184.1894628905641 41.57273475399747, -161.29477883431457 24.36225928905658 M-197.5228996859399 61.88582347566471 C-190.85075969316387 52.981595214111024, -178.0913179164473 39.468196315475765, -165.4623180602058 21.07628629337303 M-191.44380876440147 65.82305149593016 C-189.5991223033853 52.70563579912309, -179.28729459999215 43.120780059943634, -163.75400588720922 24.6729353748364 M-194.26252778078953 63.437411427950465 C-182.28389503578137 50.386024720594605, -169.27844768645642 36.0281849105822, -161.62181177236025 27.81505324953325 M-187.87026874851546 62.93241478801801 C-180.4644708341618 50.6356396253025, -168.6132389548033 43.51711080850091, -158.83684820499644 26.451159830977574 M-187.5094173880305 61.5884367574109 C-180.4500707003246 53.91248760775457, -171.52352687803722 44.25369118626765, -160.65452592824028 29.32978112793471 M-183.66527021401254 66.55602821818994 C-178.82159857297682 49.94756543074702, -164.47077941993837 39.51060509013979, -155.76901379548875 31.545687540292555 M-185.49896537423757 64.2569489955853 C-171.65925135129484 51.86471631314017, -161.21744939221327 39.97767932485539, -158.03647371143964 30.988084674671107" stroke="#fab005" stroke-width="0.5" fill="none"></path><path d="M-174.76161855221113 -1.053343404084572 C-187.69554473535172 0.2729875817659447, -198.21641316927287 -2.894404205153314, -217.16619841833628 1.0897459386357724 M-222.8273994558028 1.2544663919577062 C-225.21995396840606 14.843853933194907, -234.64125314488192 27.15943821685263, -238.56099091842782 30.012875862894447 M-238.84901614114654 30.74735000777045 C-234.74116034384383 37.61713264911504, -223.8889851932749 49.55143936338884, -215.17956952628867 65.81986141313959 M-213.40157135454194 59.56960979958225 C-209.92601512121394 59.21163156430211, -199.31482732660663 63.38732352654431, -176.54338410252785 61.93884877224639 M-180.85280381644225 65.93983841051534 C-174.2382334183375 47.69629258015791, -165.7470206549275 41.0458587530827, -160.1978351443605 32.84490259297009 M-159.38759729709193 31.83602809466238 C-166.48780386075225 17.190382275142966, -170.12273734029478 10.080912065719872, -173.9741103401812 -3.244440507143864 M-177.65724836424312 -1.2789769243681803e-13 C-177.65724836424312 -1.2789769243681803e-13, -177.65724836424312 -1.2789769243681803e-13, -177.65724836424312 -1.2789769243681803e-13" stroke="#e67700" stroke-width="1.5" fill="none" stroke-dasharray="3 6"></path></g></g></svg>