<svg version="1.1" xmlns="http://www.w3.org/2000/svg" viewBox="0 0 416.6084049443399 174.6841606663333" width="416.6084049443399" height="174.6841606663333">
  <!-- svg-source:excalidraw -->
  
  <defs>
    <style>
      @font-face {
        font-family: "Virgil";
        src: url("https://excalidraw.com/Virgil.woff2");
      }
      @font-face {
        font-family: "Cascadia";
        src: url("https://excalidraw.com/Cascadia.woff2");
      }
    </style>
  </defs>
  <g><g transform="translate(283.3517458786563 27.48142355514898) rotate(0 41.309210805843236 65.8022681524356)"><path d="M-0.398422047495842 -0.23065467178821564 C22.30163131179691 0.25774953906609377, 49.41282360902256 0.23854055586891687, 84.00210765500856 -5.598200806313116 M-0.9556171670556068 -0.5962709411978722 C23.518628319705254 -1.1068831948163504, 47.75487602578422 -2.3106005266042526, 83.03828225781513 -4.4139487304621525 M81.40080073972536 -5.284308441811163 C97.89128799973531 21.679861202493356, 115.37841744128485 50.34087414146694, 121.34246305127931 65.91665908197558 M82.25571427990985 -3.752810195916254 C96.07514308494216 19.022304908818164, 108.36732523729471 41.38845875286823, 123.01371536900592 66.93728806326783 M123.2566590656836 66.07247039179003 C116.03498412886219 80.8851940209735, 105.7789897273843 94.16113177600221, 82.11850265165162 134.2616937342617 M122.2985912387569 67.18039681265748 C111.48606105055379 87.7136223103729, 99.38560467960215 108.62627680268051, 82.59744773556781 135.4198394525382 M81.96617034574342 137.02895523938867 C53.73142340874419 133.31379400065848, 26.867480304752775 136.36967025569388, 12.52853646046583 135.92949416074487 M83.77203307797504 135.8289027917716 C68.07369764434716 135.7841718729987, 51.977924161402875 136.39749579992437, 11.047603814966124 135.8297632444236 M12.602644584245127 137.20273711118432 C-6.710486577538292 111.77792567985072, -24.218801740236486 91.18215079217015, -39.68498353660107 64.8559124122063 M10.4966642550296 135.42626554850074 C-8.204570173636396 111.30702664312048, -25.38775833497519 86.75998999813433, -40.638237453997135 66.3360657865802 M-40.21646623313427 65.65466805795825 C-28.30913545540443 49.363514912666744, -20.25897694332343 34.341945352695255, 0.8199226409196854 -1.5142001658678055 M-39.96743629127741 66.5789914305011 C-29.016016276665745 46.564594419945266, -16.25750914362712 26.498233697959776, -0.41765663772821426 -0.7035597786307335" stroke="#e67700" stroke-width="4" fill="none"></path></g></g><g><g transform="translate(35.816403132345954 11.824854815999686) rotate(0 14.242580842226744 32.00447347636023)"><path d="M0.7489581555128098 0.9591247588396072 C12.663480149562067 1.1202024085221889, 19.94495288518392 -0.662486604964415, 36.958613016539175 -1.8248548159996858 M-0.06029381603002548 -0.4427935853600502 C7.766998340098454 0.12849200802484753, 15.329740063351698 0.4561884352527259, 38.381274373167116 -0.5385090286533227 M37.09513721697863 0.3348245968421111 C41.717153802969385 5.205222960374048, 44.06788646328917 15.01972676715108, 53.81391174760131 33.424113997154734 M38.764886052244265 -1.2191482956210962 C42.43425890970576 7.248975091976805, 45.852152397088055 14.672904379632234, 54.30156481679944 32.92541726016333 M53.60094864335326 33.48210883968403 C44.44267226325576 43.02613298329857, 37.27734918162176 54.47456605907173, 31.380403987235468 64.24702520668507 M54.26909983572034 33.808315590851805 C48.58944590760844 41.20898131561718, 41.90205116686846 50.8592915919299, 30.67583899117176 64.19010021537542 M28.96248482829992 64.87130422890186 C24.258888172032606 65.76957762858103, 15.398102682751603 61.19934974602523, -2.509234754575573 62.28319494757386 M30.123781724936407 65.83380176872015 C19.253165264005233 64.28310196328086, 7.832966828420556 62.57261680022721, -3.570698296858154 60.37654542509051 M-3.8625787181986198 59.01672689947816 C-10.978692400383284 49.91854761951181, -22.872806951000314 38.97253961191602, -25.816403132345954 30.564493743909736 M-2.3083634732497558 60.54081582609149 C-8.979671091300608 51.98679849859047, -16.228696300383124 43.610412756223845, -25.12722890492944 31.693625366522213 M-25.7106406506565 31.825247375501533 C-15.65658902725529 22.913830322062303, -10.977961036285086 12.137560322631575, 1.950977846980095 -0.3483484238386154 M-25.27901761647729 32.70073024017944 C-16.49272805542963 20.840586456612556, -8.571104566481456 10.61591258123033, 0.7002304568886757 0.8243844732642174" stroke="#e67700" stroke-width="2" fill="none"></path></g></g></svg>