<svg version="1.1" xmlns="http://www.w3.org/2000/svg" viewBox="0 0 368.94723089904033 263.2729238170638" width="368.94723089904033" height="263.2729238170638">
  <!-- svg-source:excalidraw -->
  
  <defs>
    <style>
      @font-face {
        font-family: "Virgil";
        src: url("https://excalidraw.com/Virgil.woff2");
      }
      @font-face {
        font-family: "Cascadia";
        src: url("https://excalidraw.com/Cascadia.woff2");
      }
    </style>
  </defs>
  <g><g stroke-opacity="0.5" fill-opacity="0.5" transform="translate(102.49098938746914 138.63351271247183) rotate(340.322182119307 21.82082161613522 -0.10383335855019027)"><path d="M0 0 C13.325568875164757 -0.06340909591952086, 26.651137750329514 -0.12681819183904172, 43.64164323227045 -0.20766671710038576 M0 0 C13.924736322639193 -0.0662602061801544, 27.849472645278386 -0.1325204123603088, 43.64164323227045 -0.20766671710038576" stroke="#e67700" stroke-width="2" fill="none"></path></g></g><g><g stroke-opacity="0.5" fill-opacity="0.5" transform="translate(260.0470457767644 249.31830212343442) rotate(340.322182119307 9.614418251306631 -12.97638373046567)"><path d="M0 0 C5.764865392178775 -7.780720947232246, 11.52973078435755 -15.561441894464492, 19.228836502613206 -25.95276746093136 M0 0 C4.3243972011035705 -5.836550482588548, 8.648794402207141 -11.673100965177095, 19.228836502613206 -25.95276746093136" stroke="#e67700" stroke-width="2" fill="none"></path></g></g><g><g stroke-opacity="0.5" fill-opacity="0.5" transform="translate(274.5677933348322 214.7310645255771) rotate(340.322182119307 17.22621951213904 -0.7438457586274012)"><path d="M0 0 C13.675708070336153 -0.5905310469994621, 27.351416140672306 -1.1810620939989243, 34.452439024278064 -1.4876915172547962 M0 0 C11.22598258304173 -0.48474939756434926, 22.45196516608346 -0.9694987951286985, 34.452439024278064 -1.4876915172547962" stroke="#e67700" stroke-width="2" fill="none"></path></g></g><g><g stroke-opacity="0.5" fill-opacity="0.5" transform="translate(311.5673468822035 202.79597847988117) rotate(340.322182119307 10.075589851591815 15.319720233607569)"><path d="M0 0 C6.259054124966142 9.516758773814136, 12.518108249932284 19.03351754762827, 20.151179703183573 30.639440467215163 M0 0 C4.482262311192498 6.815184582991344, 8.964524622384996 13.630369165982689, 20.151179703183573 30.639440467215163" stroke="#e67700" stroke-width="2" fill="none"></path></g></g><g><g stroke-opacity="0.5" fill-opacity="0.5" transform="translate(275.04884911911637 49.67151294535327) rotate(340.322182119307 -7.492965237588294 14.985930475176616)"><path d="M0 0 C-3.096943020776672 6.193886041553344, -6.193886041553344 12.387772083106688, -14.98593047517662 29.97186095035324 M0 0 C-3.0474217128571954 6.094843425714391, -6.094843425714391 12.189686851428782, -14.98593047517662 29.97186095035324" stroke="#e67700" stroke-width="2" fill="none"></path></g></g><g><g stroke-opacity="0.5" fill-opacity="0.5" transform="translate(322.6034056677743 97.35700784187583) rotate(340.322182119307 -15.194068398442994 0)"><path d="M0 0 C-9.90139541139357 0, -19.80279082278714 0, -30.388136796885938 0 M0 0 C-6.483095712324292 0, -12.966191424648583 0, -30.388136796885938 0" stroke="#e67700" stroke-width="2" fill="none"></path></g></g><g><g stroke-opacity="0.5" fill-opacity="0.5" transform="translate(288.8362581753897 106.03823067320292) rotate(340.322182119307 -9.78248239351808 -13.528965012312227)"><path d="M0 0 C-7.5457465461437545 -10.435606925517959, -15.091493092287509 -20.871213851035918, -19.564964787036132 -27.05793002462444 M0 0 C-5.459980519188505 -7.551036888239423, -10.91996103837701 -15.102073776478846, -19.564964787036132 -27.05793002462444" stroke="#e67700" stroke-width="2" fill="none"></path></g></g><g><g stroke-opacity="0.5" fill-opacity="0.5" transform="translate(302.45715364553763 104.93187283704214) rotate(340.322182119307 -10.762358918093184 20.06421000682475)"><path d="M0 0 C-8.370148382167585 15.60442429082728, -16.74029676433517 31.20884858165456, -21.524717836186365 40.1284200136495 M0 0 C-7.596628977194293 14.16235606918057, -15.193257954388587 28.32471213836114, -21.524717836186365 40.1284200136495" stroke="#e67700" stroke-width="2" fill="none"></path></g></g><g><g stroke-opacity="0.5" fill-opacity="0.5" transform="translate(292.44078847384884 142.49704964385813) rotate(340.322182119307 10.954880752999827 13.002324151028802)"><path d="M0 0 C8.009645321916452 9.50663062049406, 16.019290643832903 19.01326124098812, 21.909761505999658 26.004648302057614 M0 0 C6.198171538957974 7.356596325445543, 12.396343077915947 14.713192650891086, 21.909761505999658 26.004648302057614" stroke="#e67700" stroke-width="2" fill="none"></path></g></g><g><g stroke-opacity="0.5" fill-opacity="0.5" transform="translate(318.98213328509763 158.27455520505947) rotate(340.322182119307 20.691514495499234 -0.6223584702151044)"><path d="M0 0 C9.772422061880748 -0.2939344844018733, 19.544844123761496 -0.5878689688037466, 41.38302899099845 -1.2447169404302114 M0 0 C10.163767468042796 -0.305705354453831, 20.32753493608559 -0.611410708907662, 41.38302899099845 -1.2447169404302114" stroke="#e67700" stroke-width="2" fill="none"></path></g></g><g><g stroke-opacity="0.5" fill-opacity="0.5" transform="translate(343.5170640481212 167.35574877708297) rotate(340.322182119307 -29.61205963131613 17.409979799759583)"><path d="M-17.425452689594973 0 C-17.425452689594973 0, -17.425452689594973 0, -17.425452689594973 0 M-17.425452689594973 0 C-17.425452689594973 0, -17.425452689594973 0, -17.425452689594973 0 M-17.425452689594973 0 C-25.737130959707933 11.874195292978733, -34.04880922982089 23.748390585957466, -41.79866657303728 34.81995959951916 M-17.425452689594973 0 C-24.468246071987423 10.061446234189916, -31.511039454379873 20.12289246837983, -41.79866657303728 34.81995959951916" stroke="#e67700" stroke-width="2" fill="none"></path></g></g><g><g stroke-opacity="0.5" fill-opacity="0.5" transform="translate(288.24915328849437 152.15590132110543) rotate(340.322182119307 -18.55396005475916 0.8325461320965672)"><path d="M0 0 C-11.840021702586133 0.5312808825358589, -23.680043405172267 1.0625617650717178, -37.10792010951834 1.665092264193139 M0 0 C-13.842757051021772 0.6211468498566993, -27.685514102043545 1.2422936997133986, -37.10792010951834 1.665092264193139" stroke="#e67700" stroke-width="2" fill="none"></path></g></g><g><g stroke-opacity="0.5" fill-opacity="0.5" transform="translate(264.0181394081538 88.8923179117563) rotate(340.322182119307 -16.651033861307383 0)"><path d="M0 0 C-7.4893438524512606 0, -14.978687704902521 0, -33.30206772261471 0 M0 0 C-7.924184123352571 0, -15.848368246705142 0, -33.30206772261471 0" stroke="#e67700" stroke-width="2" fill="none"></path></g></g><g><g stroke-opacity="0.5" fill-opacity="0.5" transform="translate(195.59456835214525 82.4521556484124) rotate(340.322182119307 -22.29378728292943 1.1614876666936595)"><path d="M0 0 C-14.528415104187086 0.7569182726095249, -29.056830208374173 1.5138365452190499, -44.58757456585886 2.3229753333873133 M0 0 C-9.910907772640966 0.5163500035938341, -19.821815545281932 1.0327000071876682, -44.58757456585886 2.3229753333873133" stroke="#e67700" stroke-width="2" fill="none"></path></g></g><g><g stroke-opacity="0.5" fill-opacity="0.5" transform="translate(161.33020139238232 94.42143992715276) rotate(340.322182119307 -11.272018522544613 17.681750612597)"><path d="M0 0 C-5.014509774500531 7.865965718545746, -10.029019549001061 15.731931437091491, -22.54403704508918 35.36350122519401 M0 0 C-5.817854119840066 9.12612461040029, -11.635708239680133 18.25224922080058, -22.54403704508918 35.36350122519401" stroke="#e67700" stroke-width="2" fill="none"></path></g></g><g><g stroke-opacity="0.5" fill-opacity="0.5" transform="translate(149.448696737661 126.0379710900026) rotate(340.322182119307 12.516822412220563 15.202170132991057)"><path d="M0 0 C5.090646384375263 6.182789039701599, 10.181292768750525 12.365578079403198, 25.033644824441087 30.404340265982103 M0 0 C7.856931027604534 9.542549879768622, 15.713862055209068 19.085099759537243, 25.033644824441087 30.404340265982103" stroke="#e67700" stroke-width="2" fill="none"></path></g></g><g><g stroke-opacity="0.5" fill-opacity="0.5" transform="translate(178.94197716822572 146.54679650649103) rotate(340.322182119307 21.53492885210028 -0.2890594476791932)"><path d="M0 0 C9.188651863681692 -0.12333760890847925, 18.377303727363383 -0.2466752178169585, 43.06985770420059 -0.5781188953583979 M0 0 C12.39651875408995 -0.16639622488711364, 24.7930375081799 -0.3327924497742273, 43.06985770420059 -0.5781188953583979" stroke="#e67700" stroke-width="2" fill="none"></path></g></g><g><g stroke-opacity="0.5" fill-opacity="0.5" transform="translate(211.96187661878588 133.51407471572878) rotate(340.322182119307 13.573675167050112 -17.276932789331937)"><path d="M0 0 C7.575991349086764 -9.642922181345947, 15.151982698173528 -19.285844362691893, 27.147350334100246 -34.55386557866389 M0 0 C8.956526448127432 -11.400103771880708, 17.913052896254865 -22.800207543761417, 27.147350334100246 -34.55386557866389" stroke="#e67700" stroke-width="2" fill="none"></path></g></g><g><g stroke-opacity="0.5" fill-opacity="0.5" transform="translate(230.28715943698018 103.31864766089308) rotate(340.322182119307 -15.576385836477868 -16.463139989243288)"><path d="M0 0 C-10.994617899837827 -11.620534796292588, -21.989235799675654 -23.241069592585177, -31.152771672955744 -32.92627997848657 M0 0 C-9.266607124199044 -9.794149420319203, -18.53321424839809 -19.588298840638405, -31.152771672955744 -32.92627997848657" stroke="#e67700" stroke-width="2" fill="none"></path></g></g><g><g stroke-opacity="0.5" fill-opacity="0.5" transform="translate(148.71466948967765 96.68281937919795) rotate(340.322182119307 -12.647453656818698 -14.534201537375822)"><path d="M0 0 C-7.155813838915363 -8.223318568371775, -14.311627677830726 -16.44663713674355, -25.294907313637438 -29.06840307475165 M0 0 C-8.66060970991998 -9.952599975938, -17.32121941983996 -19.905199951876, -25.294907313637438 -29.06840307475165" stroke="#e67700" stroke-width="2" fill="none"></path></g></g><g><g stroke-opacity="0.5" fill-opacity="0.5" transform="translate(187.65335815551583 72.41575338078772) rotate(340.322182119307 10.560774249080964 -16.02662841859417)"><path d="M0 0 C5.187501077966086 -7.87235388587671, 10.375002155932172 -15.74470777175342, 21.121548498161918 -32.05325683718834 M0 0 C6.144130303649276 -9.324097931605758, 12.288260607298552 -18.648195863211516, 21.121548498161918 -32.05325683718834" stroke="#e67700" stroke-width="2" fill="none"></path></g></g><g><g stroke-opacity="0.5" fill-opacity="0.5" transform="translate(187.82846481973792 155.90488127355087) rotate(340.322182119307 -15.020344517851527 18.036461565883087)"><path d="M0 0 C-8.082485030356056 9.705465173157982, -16.16497006071211 19.410930346315965, -30.040689035703053 36.07292313176618 M0 0 C-10.244383177012903 12.301477054589022, -20.488766354025806 24.602954109178043, -30.040689035703053 36.07292313176618" stroke="#e67700" stroke-width="2" fill="none"></path></g></g><g><g stroke-opacity="0.5" fill-opacity="0.5" transform="translate(168.06095966903757 201.35268663534958) rotate(340.322182119307 -18.78886409914793 -0.7226486191979973)"><path d="M0 0 C-14.018014495102666 -0.5391544036577943, -28.03602899020533 -1.0783088073155886, -37.577728198295866 -1.4452972383959934 M0 0 C-8.553766778812534 -0.32899102995432794, -17.107533557625068 -0.6579820599086559, -37.577728198295866 -1.4452972383959934" stroke="#e67700" stroke-width="2" fill="none"></path></g></g><g><g stroke-opacity="0.5" fill-opacity="0.5" transform="translate(248.03427732295683 165.5790515408791) rotate(340.322182119307 -11.080612161035958 -16.38003536848794)"><path d="M0 0 C-5.273234784990978 -7.79521663868231, -10.546469569981957 -15.59043327736462, -22.161224322071924 -32.76007073697586 M0 0 C-5.797078325001751 -8.569594045654755, -11.594156650003502 -17.13918809130951, -22.161224322071924 -32.76007073697586" stroke="#e67700" stroke-width="2" fill="none"></path></g></g><g><g stroke-opacity="0.5" fill-opacity="0.5" transform="translate(208.20035974585352 175.2106402406949) rotate(340.322182119307 4.561998199821062 17.77799572977139)"><path d="M50.804529681524016 0 C45.97861931351908 7.9033711869622145, 41.152708945514156 15.806742373924429, 29.093537780705105 35.55599145954276 M50.804529681524016 0 C45.49409870007242 8.696868364446413, 40.183667718620825 17.393736728892826, 29.093537780705105 35.55599145954276 M29.093537780705105 35.55599145954276 C18.864619797051194 35.45949223328188, 8.635701813397283 35.362993007021, -15.031701951759334 35.1397156130101 M29.093537780705105 35.55599145954276 C11.459736510461404 35.38963484378575, -6.174064759782297 35.22327822802875, -15.031701951759334 35.1397156130101 M-15.031701951759334 35.1397156130101 C-22.9014390614241 25.62767843115294, -30.77117617108886 16.115641249295784, -41.680533281881935 2.929659427796048 M-15.031701951759334 35.1397156130101 C-21.572666293212176 27.233746817090356, -28.113630634665014 19.327778021170616, -41.680533281881935 2.929659427796048" stroke="#e67700" stroke-width="2" fill="none"></path></g></g><g><g stroke-opacity="0.5" fill-opacity="0.5" transform="translate(206.86239798373214 218.1121722427062) rotate(340.322182119307 -9.357608466935346 16.48626955064657)"><path d="M0 0 C-4.829765038295931 8.50909808515563, -9.659530076591862 17.01819617031126, -18.715216933870668 32.97253910129313 M0 0 C-5.876300534928463 10.352888232260844, -11.752601069856926 20.705776464521687, -18.715216933870668 32.97253910129313" stroke="#e67700" stroke-width="2" fill="none"></path></g></g><g><g stroke-opacity="0.5" fill-opacity="0.5" transform="translate(246.6366152299849 195.1769592592987) rotate(340.322182119307 11.739804392520682 13.517902921842648)"><path d="M0 0 C7.369189268000489 8.485318988873432, 14.738378536000978 16.970637977746865, 23.479608785041332 27.035805843685306 M0 0 C8.876446060801872 10.220863323526716, 17.752892121603743 20.441726647053432, 23.479608785041332 27.035805843685306" stroke="#e67700" stroke-width="2" fill="none"></path></g></g><g><g transform="translate(147.64217421504094 48.83078591309061) rotate(0 1.2253428994799833 6.3564601852391505)"><path d="M0 0 C0.7053650531152429 2.1601743705239667, 1.4107301062304858 4.320348741047933, 2.4506857989599875 7.5052040496476 M0 0 C0.5155007718728014 1.5787166524154577, 1.0310015437456028 3.1574333048309153, 2.4506857989599875 7.5052040496476 M2.4506857989599875 7.5052040496476 C1.7610198852547527 8.970752798157758, 1.071353971549518 10.436301546667917, 0.000010283475098892493 12.712920370478297 M2.4506857989599875 7.5052040496476 C1.8356801264178788 8.812098845822728, 1.2206744538757701 10.118993641997855, 0.000010283475098892493 12.712920370478297" stroke="#000000" stroke-width="2" fill="none"></path></g></g><g><g transform="translate(198.62616180565664 99.42312841281267) rotate(336.66981356349436 -59.852791320301606 -75.96547843052385)"><path d="M-53.24794918485163 -67.44741183413984 C-52.949271992358774 -69.33903256787043, -51.223582413322504 -75.81036653968107, -51.45588602989451 -78.79713623652336 C-51.68818964646651 -81.78390593336565, -52.91608130524736 -84.1069498973876, -54.64177088428366 -85.3680300151936 C-56.36746046331996 -86.6291101329996, -59.71928427070542 -86.56273544303565, -61.810023504112316 -86.36361694335938 C-63.90076273751921 -86.1644984436831, -66.12424466659529 -85.20209551836996, -67.186206284725 -84.17331901713595 C-68.24816790285472 -83.14454251590195, -68.400106800631 -81.85167004301636, -68.18179321289062 -80.19095793595535 C-67.96347962515026 -78.53024582889435, -66.93828637641246 -76.36615695601134, -65.87632475828275 -74.20904637476991 C-64.81436314015303 -72.05193579352849, -62.68685887948368 -68.7070969620435, -61.810023504112316 -67.24829444850677 C-60.93318812874095 -65.78949193497004, -60.81443100573085 -65.75490848604242, -60.61531250605456 -65.45623129354955 M-53.24794918485163 -67.44741183413984 C-52.949271992358774 -69.33903256787043, -51.223582413322504 -75.81036653968107, -51.45588602989451 -78.79713623652336 C-51.68818964646651 -81.78390593336565, -52.91608130524736 -84.1069498973876, -54.64177088428366 -85.3680300151936 C-56.36746046331996 -86.6291101329996, -59.71928427070542 -86.56273544303565, -61.810023504112316 -86.36361694335938 C-63.90076273751921 -86.1644984436831, -66.12424466659529 -85.20209551836996, -67.186206284725 -84.17331901713595 C-68.24816790285472 -83.14454251590195, -68.400106800631 -81.85167004301636, -68.18179321289062 -80.19095793595535 C-67.96347962515026 -78.53024582889435, -66.93828637641246 -76.36615695601134, -65.87632475828275 -74.20904637476991 C-64.81436314015303 -72.05193579352849, -62.68685887948368 -68.7070969620435, -61.810023504112316 -67.24829444850677 C-60.93318812874095 -65.78949193497004, -60.81443100573085 -65.75490848604242, -60.61531250605456 -65.45623129354955" stroke="#000000" stroke-width="2" fill="none"></path></g></g><g><g transform="translate(142.65082616341118 37.133539018451984) rotate(0 -17.45189090720919 4.256149758029601)" fill-rule="evenodd"><path d="M-11.777021917317441 0 L-24.545471191406246 2.8374384637243315 L-10.35831062301216 8.5122995160592 L-11.777021917317441 0" stroke="none" stroke-width="0" fill="#000" fill-rule="evenodd"></path><path d="M-11.777021917317441 0 C-15.575085352904498 0.844015670851209, -19.373148788491555 1.688031341702418, -24.545471191406246 2.8374384637243315 M-11.777021917317441 0 C-15.520575192961772 0.8319022793840769, -19.264128468606103 1.6638045587681538, -24.545471191406246 2.8374384637243315 M-24.545471191406246 2.8374384637243315 C-19.131007866292563 5.00322258203725, -13.716544541178878 7.1690067003501685, -10.35831062301216 8.5122995160592 M-24.545471191406246 2.8374384637243315 C-21.285482062264204 4.141433385810234, -18.025492933122166 5.445428307896136, -10.35831062301216 8.5122995160592 M-10.35831062301216 8.5122995160592 C-10.9132390765178 5.182716375934378, -11.468167530023438 1.8531332358095556, -11.777021917317441 0 M-10.35831062301216 8.5122995160592 C-10.906475528904087 5.223297812982315, -11.454640434796012 1.9342961099054312, -11.777021917317441 0 M-11.777021917317441 0 C-11.777021917317441 0, -11.777021917317441 0, -11.777021917317441 0 M-11.777021917317441 0 C-11.777021917317441 0, -11.777021917317441 0, -11.777021917317441 0" stroke="#000000" stroke-width="2" fill="none"></path></g></g><g><g transform="translate(178.63722067946964 41.16567949826151) rotate(0 0.09956203494596139 0.09955869281657215)"><path d="M0 0 C0.033187344981992745 0.03318623093885799, 0.16593672490996372 0.16593115469428993, 0.19912406989195647 0.19911738563314793 M0 0 C0.033187344981992745 0.03318623093885799, 0.16593672490996372 0.16593115469428993, 0.19912406989195647 0.19911738563314793" stroke="#000000" stroke-width="2" fill="none"></path></g></g><g transform="translate(128.03638165748197 28.621247439949144) rotate(0 17.49748692177303 11.349726073448196)"><path d="M17.497486921773024 0 C21.05909005652955 -0.14490657649145952, 25.87271125260903 1.0921870133314486, 28.744654715740992 2.6553314839606266 C31.616598178872955 4.218475954589804, 34.07813097011923 6.983990552739792, 34.72914770056481 9.378866823775068 C35.380164431010385 11.773743094810344, 34.52528306407577 14.918570262033317, 32.65075509841444 17.024589110172286 C30.776227132753117 19.130607958311256, 27.004940100174387 21.18324811220278, 23.481979906596848 22.01497991260888 C19.95901971301931 22.84671171301498, 15.035954130526742 22.84671171301498, 11.5129939369492 22.01497991260888 C7.99003374337166 21.18324811220278, 4.218746710792933 19.130607958311256, 2.344218745131606 17.024589110172286 C0.4696907794702785 14.918570262033317, -0.38519058746433876 11.773743094810342, 0.2658261429812363 9.378866823775066 C0.9168428734268114 6.98399055273979, 3.3783756646730922 4.218475954589806, 6.2503191278050565 2.6553314839606283 C9.122262590937021 1.0921870133314506, 15.622958956111693 0.4047228270819441, 17.49748692177302 0 C19.37201488743435 -0.4047228270819441, 17.497486921773024 0.03783242024482694, 17.497486921773024 0.22699452146896348 M17.497486921773024 0 C21.05909005652955 -0.14490657649145952, 25.87271125260903 1.0921870133314486, 28.744654715740992 2.6553314839606266 C31.616598178872955 4.218475954589804, 34.07813097011923 6.983990552739792, 34.72914770056481 9.378866823775068 C35.380164431010385 11.773743094810344, 34.52528306407577 14.918570262033317, 32.65075509841444 17.024589110172286 C30.776227132753117 19.130607958311256, 27.004940100174387 21.18324811220278, 23.481979906596848 22.01497991260888 C19.95901971301931 22.84671171301498, 15.035954130526742 22.84671171301498, 11.5129939369492 22.01497991260888 C7.99003374337166 21.18324811220278, 4.218746710792933 19.130607958311256, 2.344218745131606 17.024589110172286 C0.4696907794702785 14.918570262033317, -0.38519058746433876 11.773743094810342, 0.2658261429812363 9.378866823775066 C0.9168428734268114 6.98399055273979, 3.3783756646730922 4.218475954589806, 6.2503191278050565 2.6553314839606283 C9.122262590937021 1.0921870133314506, 15.622958956111693 0.4047228270819441, 17.49748692177302 0 C19.37201488743435 -0.4047228270819441, 17.497486921773024 0.03783242024482694, 17.497486921773024 0.22699452146896348" stroke="none" stroke-width="0" fill="#fab005"></path><path d="M17.497486921773024 0 C21.05909005652955 -0.14490657649145952, 25.87271125260903 1.0921870133314486, 28.744654715740992 2.6553314839606266 C31.616598178872955 4.218475954589804, 34.07813097011923 6.983990552739792, 34.72914770056481 9.378866823775068 C35.380164431010385 11.773743094810344, 34.52528306407577 14.918570262033317, 32.65075509841444 17.024589110172286 C30.776227132753117 19.130607958311256, 27.004940100174387 21.18324811220278, 23.481979906596848 22.01497991260888 C19.95901971301931 22.84671171301498, 15.035954130526742 22.84671171301498, 11.5129939369492 22.01497991260888 C7.99003374337166 21.18324811220278, 4.218746710792933 19.130607958311256, 2.344218745131606 17.024589110172286 C0.4696907794702785 14.918570262033317, -0.38519058746433876 11.773743094810342, 0.2658261429812363 9.378866823775066 C0.9168428734268114 6.98399055273979, 3.3783756646730922 4.218475954589806, 6.2503191278050565 2.6553314839606283 C9.122262590937021 1.0921870133314506, 15.622958956111693 0.4047228270819441, 17.49748692177302 0 C19.37201488743435 -0.4047228270819441, 17.497486921773024 0.03783242024482694, 17.497486921773024 0.22699452146896348 M17.497486921773024 0 C21.05909005652955 -0.14490657649145952, 25.87271125260903 1.0921870133314486, 28.744654715740992 2.6553314839606266 C31.616598178872955 4.218475954589804, 34.07813097011923 6.983990552739792, 34.72914770056481 9.378866823775068 C35.380164431010385 11.773743094810344, 34.52528306407577 14.918570262033317, 32.65075509841444 17.024589110172286 C30.776227132753117 19.130607958311256, 27.004940100174387 21.18324811220278, 23.481979906596848 22.01497991260888 C19.95901971301931 22.84671171301498, 15.035954130526742 22.84671171301498, 11.5129939369492 22.01497991260888 C7.99003374337166 21.18324811220278, 4.218746710792933 19.130607958311256, 2.344218745131606 17.024589110172286 C0.4696907794702785 14.918570262033317, -0.38519058746433876 11.773743094810342, 0.2658261429812363 9.378866823775066 C0.9168428734268114 6.98399055273979, 3.3783756646730922 4.218475954589806, 6.2503191278050565 2.6553314839606283 C9.122262590937021 1.0921870133314506, 15.622958956111693 0.4047228270819441, 17.49748692177302 0 C19.37201488743435 -0.4047228270819441, 17.497486921773024 0.03783242024482694, 17.497486921773024 0.22699452146896348" stroke="#000000" stroke-width="2" fill="none"></path></g><g transform="translate(160.19391703730406 29.40048564415318) rotate(0 9.931010810364455 9.931006841586026)"><path d="M9.93101081036446 0 C11.952462198876823 -0.126793210092892, 14.684518770713986 0.9556633024880321, 16.314541510929814 2.323414236012497 C17.944564251145643 3.691165169536962, 19.34165109391474 6.110989596752368, 19.711147251659433 8.206505601146791 C20.080643409404125 10.302021605541213, 19.59544024082553 13.053744414637034, 18.53151845739797 14.896510262379032 C17.46759667397041 16.73927611012103, 15.3271354490546 18.535335616728823, 13.32761655109408 19.26310068759878 C11.32809765313356 19.990865758468736, 8.533923967595364 19.990865758468736, 6.534405069634842 19.26310068759878 C4.534886171674321 18.535335616728823, 2.3944249467585115 16.73927611012103, 1.3305031633309525 14.896510262379032 C0.2665813799033938 13.053744414637034, -0.21862178867520266 10.302021605541213, 0.1508743690694896 8.206505601146791 C0.5203705268141818 6.110989596752368, 1.9174573695832777 3.691165169536963, 3.547480109799106 2.323414236012498 C5.1775028500149345 0.955663302488033, 8.867089026936899 0.3541323498634628, 9.931010810364459 0 C10.994932593792019 -0.3541323498634628, 9.93101081036446 0.03310335613862078, 9.93101081036446 0.19862013683172108 M9.93101081036446 0 C11.952462198876823 -0.126793210092892, 14.684518770713986 0.9556633024880321, 16.314541510929814 2.323414236012497 C17.944564251145643 3.691165169536962, 19.34165109391474 6.110989596752368, 19.711147251659433 8.206505601146791 C20.080643409404125 10.302021605541213, 19.59544024082553 13.053744414637034, 18.53151845739797 14.896510262379032 C17.46759667397041 16.73927611012103, 15.3271354490546 18.535335616728823, 13.32761655109408 19.26310068759878 C11.32809765313356 19.990865758468736, 8.533923967595364 19.990865758468736, 6.534405069634842 19.26310068759878 C4.534886171674321 18.535335616728823, 2.3944249467585115 16.73927611012103, 1.3305031633309525 14.896510262379032 C0.2665813799033938 13.053744414637034, -0.21862178867520266 10.302021605541213, 0.1508743690694896 8.206505601146791 C0.5203705268141818 6.110989596752368, 1.9174573695832777 3.691165169536963, 3.547480109799106 2.323414236012498 C5.1775028500149345 0.955663302488033, 8.867089026936899 0.3541323498634628, 9.931010810364459 0 C10.994932593792019 -0.3541323498634628, 9.93101081036446 0.03310335613862078, 9.93101081036446 0.19862013683172108" stroke="none" stroke-width="0" fill="#fab005"></path><path d="M9.93101081036446 0 C11.952462198876823 -0.126793210092892, 14.684518770713986 0.9556633024880321, 16.314541510929814 2.323414236012497 C17.944564251145643 3.691165169536962, 19.34165109391474 6.110989596752368, 19.711147251659433 8.206505601146791 C20.080643409404125 10.302021605541213, 19.59544024082553 13.053744414637034, 18.53151845739797 14.896510262379032 C17.46759667397041 16.73927611012103, 15.3271354490546 18.535335616728823, 13.32761655109408 19.26310068759878 C11.32809765313356 19.990865758468736, 8.533923967595364 19.990865758468736, 6.534405069634842 19.26310068759878 C4.534886171674321 18.535335616728823, 2.3944249467585115 16.73927611012103, 1.3305031633309525 14.896510262379032 C0.2665813799033938 13.053744414637034, -0.21862178867520266 10.302021605541213, 0.1508743690694896 8.206505601146791 C0.5203705268141818 6.110989596752368, 1.9174573695832777 3.691165169536963, 3.547480109799106 2.323414236012498 C5.1775028500149345 0.955663302488033, 8.867089026936899 0.3541323498634628, 9.931010810364459 0 C10.994932593792019 -0.3541323498634628, 9.93101081036446 0.03310335613862078, 9.93101081036446 0.19862013683172108 M9.93101081036446 0 C11.952462198876823 -0.126793210092892, 14.684518770713986 0.9556633024880321, 16.314541510929814 2.323414236012497 C17.944564251145643 3.691165169536962, 19.34165109391474 6.110989596752368, 19.711147251659433 8.206505601146791 C20.080643409404125 10.302021605541213, 19.59544024082553 13.053744414637034, 18.53151845739797 14.896510262379032 C17.46759667397041 16.73927611012103, 15.3271354490546 18.535335616728823, 13.32761655109408 19.26310068759878 C11.32809765313356 19.990865758468736, 8.533923967595364 19.990865758468736, 6.534405069634842 19.26310068759878 C4.534886171674321 18.535335616728823, 2.3944249467585115 16.73927611012103, 1.3305031633309525 14.896510262379032 C0.2665813799033938 13.053744414637034, -0.21862178867520266 10.302021605541213, 0.1508743690694896 8.206505601146791 C0.5203705268141818 6.110989596752368, 1.9174573695832777 3.691165169536963, 3.547480109799106 2.323414236012498 C5.1775028500149345 0.955663302488033, 8.867089026936899 0.3541323498634628, 9.931010810364459 0 C10.994932593792019 -0.3541323498634628, 9.93101081036446 0.03310335613862078, 9.93101081036446 0.19862013683172108" stroke="#000000" stroke-width="2" fill="none"></path></g><g><g transform="translate(211.41828655899536 96.62136822229348) rotate(17.07209388302214 -61.909584590347265 -75.96547843052385)"><path d="M-55.075579725650556 -67.44741183413984 C-54.776902533157696 -69.33903256787043, -53.05121295412141 -75.81036653968107, -53.283516570693415 -78.79713623652336 C-53.51582018726542 -81.78390593336565, -54.74371184604629 -84.1069498973876, -56.46940142508257 -85.3680300151936 C-58.19509100411886 -86.6291101329996, -61.546914811504266 -86.56273544303565, -63.63765404491113 -86.36361694335938 C-65.728393278318 -86.1644984436831, -67.86644609743142 -85.263047355178, -69.01383682552374 -84.17331901713595 C-70.16122755361606 -83.0835906790939, -70.68347769752013 -81.44370141176128, -70.52199841346507 -79.82524691510712 C-70.36051912941001 -78.20679241845295, -69.19235184928571 -76.55875078164433, -68.0449611211934 -74.46259203721094 C-66.89757039310108 -72.36643329277754, -64.57132372396778 -68.74935457245033, -63.63765404491113 -67.24829444850677 C-62.703984365854474 -65.74723432456321, -62.642061546529746 -65.75490848604242, -62.442943046853465 -65.45623129354955 M-55.075579725650556 -67.44741183413984 C-54.776902533157696 -69.33903256787043, -53.05121295412141 -75.81036653968107, -53.283516570693415 -78.79713623652336 C-53.51582018726542 -81.78390593336565, -54.74371184604629 -84.1069498973876, -56.46940142508257 -85.3680300151936 C-58.19509100411886 -86.6291101329996, -61.546914811504266 -86.56273544303565, -63.63765404491113 -86.36361694335938 C-65.728393278318 -86.1644984436831, -67.86644609743142 -85.263047355178, -69.01383682552374 -84.17331901713595 C-70.16122755361606 -83.0835906790939, -70.68347769752013 -81.44370141176128, -70.52199841346507 -79.82524691510712 C-70.36051912941001 -78.20679241845295, -69.19235184928571 -76.55875078164433, -68.0449611211934 -74.46259203721094 C-66.89757039310108 -72.36643329277754, -64.57132372396778 -68.74935457245033, -63.63765404491113 -67.24829444850677 C-62.703984365854474 -65.74723432456321, -62.642061546529746 -65.75490848604242, -62.442943046853465 -65.45623129354955" stroke="#000000" stroke-width="2" fill="none"></path></g></g><g><g transform="translate(161.31138067586227 30.2141898671442) rotate(0 -7.198494189607004 9.358547203922598)"><path d="M-7.099731324644087 0 C-7.431594748075802 0.9624040393562868, -8.75904844180266 3.8164299264862898, -9.090911865234375 5.774424236137721 C-9.42277528866609 7.732418545789152, -9.787824943036663 9.590854162624009, -9.090911865234375 11.747965857908587 C-8.393998787432087 13.905077553193166, -5.606346476222937 17.55557298285576, -4.909433398420649 18.717094407845195 M-7.099731324644087 0 C-7.431594748075802 0.9624040393562868, -8.75904844180266 3.8164299264862898, -9.090911865234375 5.774424236137721 C-9.42277528866609 7.732418545789152, -9.787824943036663 9.590854162624009, -9.090911865234375 11.747965857908587 C-8.393998787432087 13.905077553193166, -5.606346476222937 17.55557298285576, -4.909433398420649 18.717094407845195" stroke="#000000" stroke-width="2" fill="none"></path></g></g><g><g transform="translate(158.51806316518724 28.621250782078704) rotate(0 -11.21726908767016 11.250165709566929)"><path d="M-10.649585070306477 0 C-11.081007186554766 1.4601975034391614, -12.740323189670203 6.239024785022947, -13.238117767796208 8.761185020634969 C-13.735912345922213 11.28334525624699, -13.935029731555357 13.274525796837269, -13.6363525390625 15.132961413672133 C-13.337675346569643 16.991397030506995, -12.275712614396792 18.683903720733863, -11.446054612839072 19.91179872164415 C-10.616396611281353 21.139693722554437, -9.12301287690333 22.06890930288557, -8.658404529716181 22.500331419133854 M-10.649585070306477 0 C-11.081007186554766 1.4601975034391614, -12.740323189670203 6.239024785022947, -13.238117767796208 8.761185020634969 C-13.735912345922213 11.28334525624699, -13.935029731555357 13.274525796837269, -13.6363525390625 15.132961413672133 C-13.337675346569643 16.991397030506995, -12.275712614396792 18.683903720733863, -11.446054612839072 19.91179872164415 C-10.616396611281353 21.139693722554437, -9.12301287690333 22.06890930288557, -8.658404529716181 22.500331419133854" stroke="#000000" stroke-width="2" fill="none"></path></g></g><g><g transform="translate(149.07630973912518 30.199947552776308) rotate(0 -9.037793907483547 10.155016746455189)"><path d="M-9.229643572041525 0 C-9.661065688289812 1.393826155604576, -11.652245114836958 6.006727852709728, -11.81817626953125 8.362956933627455 C-11.984107424225542 10.719186014545182, -10.922143578009557 12.44487225145206, -10.225230500207271 14.137374485506358 C-9.528317422404985 15.829876719560657, -8.30042353553783 17.489193836719245, -7.636697802717531 18.51797033795325 C-6.972972069897234 19.546746839187257, -6.475179719857493 20.01135630041753, -6.242876103285486 20.310033492910385 M-9.229643572041525 0 C-9.661065688289812 1.393826155604576, -11.652245114836958 6.006727852709728, -11.81817626953125 8.362956933627455 C-11.984107424225542 10.719186014545182, -10.922143578009557 12.44487225145206, -10.225230500207271 14.137374485506358 C-9.528317422404985 15.829876719560657, -8.30042353553783 17.489193836719245, -7.636697802717531 18.51797033795325 C-6.972972069897234 19.546746839187257, -6.475179719857493 20.01135630041753, -6.242876103285486 20.310033492910385" stroke="#000000" stroke-width="2" fill="none"></path></g></g><g transform="translate(167.9154782787138 33.5532486255095) rotate(0 2.389415311856567 2.389415311856588)"><path d="M2.3894153118565855 0 C2.875779388194544 -0.030506638699185646, 3.533116081332889 0.22993404036157666, 3.925301868713297 0.5590169899054482 C4.317487656093705 0.8880999394493199, 4.653628735571932 1.4703133676166575, 4.7425300361390335 1.9744976972632293 C4.831431336706135 2.478682026909801, 4.714690764925357 3.140750709261903, 4.458709672115905 3.584122967784878 C4.202728579306453 4.0274952263078525, 3.6877305672298317 4.459629868298379, 3.2066434792823224 4.634731248401079 C2.725556391334813 4.809832628503779, 2.053274232378358 4.80983262850378, 1.5721871444308486 4.63473124840108 C1.091100056483339 4.4596298682983795, 0.5761020444067175 4.0274952263078525, 0.3201209515972656 3.584122967784878 C0.0641398587878137 3.1407507092619027, -0.052600712992964205 2.4786820269098007, 0.03630058757413712 1.974497697263229 C0.12520188814123845 1.4703133676166575, 0.4613429676194656 0.88809993944932, 0.8535287549998736 0.5590169899054485 C1.2457145423802816 0.22993404036157694, 2.133434219047133 0.0852047806113861, 2.389415311856585 0 C2.645396404666037 -0.0852047806113861, 2.3894153118565855 0.007964717706188708, 2.3894153118565855 0.04778830623713182 M2.3894153118565855 0 C2.875779388194544 -0.030506638699185646, 3.533116081332889 0.22993404036157666, 3.925301868713297 0.5590169899054482 C4.317487656093705 0.8880999394493199, 4.653628735571932 1.4703133676166575, 4.7425300361390335 1.9744976972632293 C4.831431336706135 2.478682026909801, 4.714690764925357 3.140750709261903, 4.458709672115905 3.584122967784878 C4.202728579306453 4.0274952263078525, 3.6877305672298317 4.459629868298379, 3.2066434792823224 4.634731248401079 C2.725556391334813 4.809832628503779, 2.053274232378358 4.80983262850378, 1.5721871444308486 4.63473124840108 C1.091100056483339 4.4596298682983795, 0.5761020444067175 4.0274952263078525, 0.3201209515972656 3.584122967784878 C0.0641398587878137 3.1407507092619027, -0.052600712992964205 2.4786820269098007, 0.03630058757413712 1.974497697263229 C0.12520188814123845 1.4703133676166575, 0.4613429676194656 0.88809993944932, 0.8535287549998736 0.5590169899054485 C1.2457145423802816 0.22993404036157694, 2.133434219047133 0.0852047806113861, 2.389415311856585 0 C2.645396404666037 -0.0852047806113861, 2.3894153118565855 0.007964717706188708, 2.3894153118565855 0.04778830623713182" stroke="none" stroke-width="0" fill="#fff"></path><path d="M2.3894153118565855 0 C2.875779388194544 -0.030506638699185646, 3.533116081332889 0.22993404036157666, 3.925301868713297 0.5590169899054482 C4.317487656093705 0.8880999394493199, 4.653628735571932 1.4703133676166575, 4.7425300361390335 1.9744976972632293 C4.831431336706135 2.478682026909801, 4.714690764925357 3.140750709261903, 4.458709672115905 3.584122967784878 C4.202728579306453 4.0274952263078525, 3.6877305672298317 4.459629868298379, 3.2066434792823224 4.634731248401079 C2.725556391334813 4.809832628503779, 2.053274232378358 4.80983262850378, 1.5721871444308486 4.63473124840108 C1.091100056483339 4.4596298682983795, 0.5761020444067175 4.0274952263078525, 0.3201209515972656 3.584122967784878 C0.0641398587878137 3.1407507092619027, -0.052600712992964205 2.4786820269098007, 0.03630058757413712 1.974497697263229 C0.12520188814123845 1.4703133676166575, 0.4613429676194656 0.88809993944932, 0.8535287549998736 0.5590169899054485 C1.2457145423802816 0.22993404036157694, 2.133434219047133 0.0852047806113861, 2.389415311856585 0 C2.645396404666037 -0.0852047806113861, 2.3894153118565855 0.007964717706188708, 2.3894153118565855 0.04778830623713182 M2.3894153118565855 0 C2.875779388194544 -0.030506638699185646, 3.533116081332889 0.22993404036157666, 3.925301868713297 0.5590169899054482 C4.317487656093705 0.8880999394493199, 4.653628735571932 1.4703133676166575, 4.7425300361390335 1.9744976972632293 C4.831431336706135 2.478682026909801, 4.714690764925357 3.140750709261903, 4.458709672115905 3.584122967784878 C4.202728579306453 4.0274952263078525, 3.6877305672298317 4.459629868298379, 3.2066434792823224 4.634731248401079 C2.725556391334813 4.809832628503779, 2.053274232378358 4.80983262850378, 1.5721871444308486 4.63473124840108 C1.091100056483339 4.4596298682983795, 0.5761020444067175 4.0274952263078525, 0.3201209515972656 3.584122967784878 C0.0641398587878137 3.1407507092619027, -0.052600712992964205 2.4786820269098007, 0.03630058757413712 1.974497697263229 C0.12520188814123845 1.4703133676166575, 0.4613429676194656 0.88809993944932, 0.8535287549998736 0.5590169899054485 C1.2457145423802816 0.22993404036157694, 2.133434219047133 0.0852047806113861, 2.389415311856585 0 C2.645396404666037 -0.0852047806113861, 2.3894153118565855 0.007964717706188708, 2.3894153118565855 0.04778830623713182" stroke="#000000" stroke-width="2" fill="none"></path></g><g transform="translate(174.08813420107475 33.29286589451024) rotate(0 2.389415311856567 2.389415311856588)"><path d="M2.3894153118565855 0 C2.875779388194544 -0.030506638699185646, 3.533116081332889 0.22993404036157666, 3.925301868713297 0.5590169899054482 C4.317487656093705 0.8880999394493199, 4.653628735571932 1.4703133676166575, 4.7425300361390335 1.9744976972632293 C4.831431336706135 2.478682026909801, 4.714690764925357 3.140750709261903, 4.458709672115905 3.584122967784878 C4.202728579306453 4.0274952263078525, 3.6877305672298317 4.459629868298379, 3.2066434792823224 4.634731248401079 C2.725556391334813 4.809832628503779, 2.053274232378358 4.80983262850378, 1.5721871444308486 4.63473124840108 C1.091100056483339 4.4596298682983795, 0.5761020444067175 4.0274952263078525, 0.3201209515972656 3.584122967784878 C0.0641398587878137 3.1407507092619027, -0.052600712992964205 2.4786820269098007, 0.03630058757413712 1.974497697263229 C0.12520188814123845 1.4703133676166575, 0.4613429676194656 0.88809993944932, 0.8535287549998736 0.5590169899054485 C1.2457145423802816 0.22993404036157694, 2.133434219047133 0.0852047806113861, 2.389415311856585 0 C2.645396404666037 -0.0852047806113861, 2.3894153118565855 0.007964717706188708, 2.3894153118565855 0.04778830623713182 M2.3894153118565855 0 C2.875779388194544 -0.030506638699185646, 3.533116081332889 0.22993404036157666, 3.925301868713297 0.5590169899054482 C4.317487656093705 0.8880999394493199, 4.653628735571932 1.4703133676166575, 4.7425300361390335 1.9744976972632293 C4.831431336706135 2.478682026909801, 4.714690764925357 3.140750709261903, 4.458709672115905 3.584122967784878 C4.202728579306453 4.0274952263078525, 3.6877305672298317 4.459629868298379, 3.2066434792823224 4.634731248401079 C2.725556391334813 4.809832628503779, 2.053274232378358 4.80983262850378, 1.5721871444308486 4.63473124840108 C1.091100056483339 4.4596298682983795, 0.5761020444067175 4.0274952263078525, 0.3201209515972656 3.584122967784878 C0.0641398587878137 3.1407507092619027, -0.052600712992964205 2.4786820269098007, 0.03630058757413712 1.974497697263229 C0.12520188814123845 1.4703133676166575, 0.4613429676194656 0.88809993944932, 0.8535287549998736 0.5590169899054485 C1.2457145423802816 0.22993404036157694, 2.133434219047133 0.0852047806113861, 2.389415311856585 0 C2.645396404666037 -0.0852047806113861, 2.3894153118565855 0.007964717706188708, 2.3894153118565855 0.04778830623713182" stroke="none" stroke-width="0" fill="#fff"></path><path d="M2.3894153118565855 0 C2.875779388194544 -0.030506638699185646, 3.533116081332889 0.22993404036157666, 3.925301868713297 0.5590169899054482 C4.317487656093705 0.8880999394493199, 4.653628735571932 1.4703133676166575, 4.7425300361390335 1.9744976972632293 C4.831431336706135 2.478682026909801, 4.714690764925357 3.140750709261903, 4.458709672115905 3.584122967784878 C4.202728579306453 4.0274952263078525, 3.6877305672298317 4.459629868298379, 3.2066434792823224 4.634731248401079 C2.725556391334813 4.809832628503779, 2.053274232378358 4.80983262850378, 1.5721871444308486 4.63473124840108 C1.091100056483339 4.4596298682983795, 0.5761020444067175 4.0274952263078525, 0.3201209515972656 3.584122967784878 C0.0641398587878137 3.1407507092619027, -0.052600712992964205 2.4786820269098007, 0.03630058757413712 1.974497697263229 C0.12520188814123845 1.4703133676166575, 0.4613429676194656 0.88809993944932, 0.8535287549998736 0.5590169899054485 C1.2457145423802816 0.22993404036157694, 2.133434219047133 0.0852047806113861, 2.389415311856585 0 C2.645396404666037 -0.0852047806113861, 2.3894153118565855 0.007964717706188708, 2.3894153118565855 0.04778830623713182 M2.3894153118565855 0 C2.875779388194544 -0.030506638699185646, 3.533116081332889 0.22993404036157666, 3.925301868713297 0.5590169899054482 C4.317487656093705 0.8880999394493199, 4.653628735571932 1.4703133676166575, 4.7425300361390335 1.9744976972632293 C4.831431336706135 2.478682026909801, 4.714690764925357 3.140750709261903, 4.458709672115905 3.584122967784878 C4.202728579306453 4.0274952263078525, 3.6877305672298317 4.459629868298379, 3.2066434792823224 4.634731248401079 C2.725556391334813 4.809832628503779, 2.053274232378358 4.80983262850378, 1.5721871444308486 4.63473124840108 C1.091100056483339 4.4596298682983795, 0.5761020444067175 4.0274952263078525, 0.3201209515972656 3.584122967784878 C0.0641398587878137 3.1407507092619027, -0.052600712992964205 2.4786820269098007, 0.03630058757413712 1.974497697263229 C0.12520188814123845 1.4703133676166575, 0.4613429676194656 0.88809993944932, 0.8535287549998736 0.5590169899054485 C1.2457145423802816 0.22993404036157694, 2.133434219047133 0.0852047806113861, 2.389415311856585 0 C2.645396404666037 -0.0852047806113861, 2.3894153118565855 0.007964717706188708, 2.3894153118565855 0.04778830623713182" stroke="#000000" stroke-width="2" fill="none"></path></g><g><g transform="translate(173.24528076487326 42.146886369049696) rotate(0 0.5288696338200225 0.619399677424191)"><path d="M5.889737749155906 0.7572526419188026 C4.704961597238229 0.9359477315895788, 0.5680368760951275 2.0591748664764267, -1.2189191623501585 1.8294231799434595 C-3.005875200795445 1.5996714934104925, -4.229818594988203 -0.21281070107525624, -4.831998481515811 -0.6212574772789994 M5.889737749155906 0.7572526419188026 C4.704961597238229 0.9359477315895788, 0.5680368760951275 2.0591748664764267, -1.2189191623501585 1.8294231799434595 C-3.005875200795445 1.5996714934104925, -4.229818594988203 -0.21281070107525624, -4.831998481515811 -0.6212574772789994" stroke="#000000" stroke-width="2" fill="none"></path></g></g><g><g transform="translate(171.47662667771436 50.6379303295096) rotate(0 2.6804391994054413 -23.67303408796711)"><path d="M0 -20.753046128455434 C0.30633615334812386 -21.620996277725105, 0.9445371869535867 -24.990685394991907, 1.838016920088743 -25.960747024073452 C2.7314966532238993 -26.930808653154998, 4.773734819023906 -26.47130442313283, 5.3608783988109385 -26.573415902944703 M0 -20.753046128455434 C0.30633615334812386 -21.620996277725105, 0.9445371869535867 -24.990685394991907, 1.838016920088743 -25.960747024073452 C2.7314966532238993 -26.930808653154998, 4.773734819023906 -26.47130442313283, 5.3608783988109385 -26.573415902944703" stroke="#000000" stroke-width="2" fill="none"></path></g></g><g><g transform="translate(167.64744104302878 59.35598151272811) rotate(0 0.8328477212913867 -32.381282198918655)"><path d="M0 -28.39892163191183 C0.02552701299671221 -29.368984117949623, -0.1276453484586309 -32.89184302580299, 0.15316207798027326 -34.2192965481386 C0.4339695044191774 -35.54675007047421, 1.429564145191233 -36.006251729627664, 1.684844558633425 -36.363642765925476 M0 -28.39892163191183 C0.02552701299671221 -29.368984117949623, -0.1276453484586309 -32.89184302580299, 0.15316207798027326 -34.2192965481386 C0.4339695044191774 -35.54675007047421, 1.429564145191233 -36.006251729627664, 1.684844558633425 -36.363642765925476" stroke="#000000" stroke-width="2" fill="none"></path></g></g><g><g transform="translate(155.27017665554052 48.81725792919258) rotate(0 1.1478181724510819 6.586208443947072)"><path d="M0 0 C0.8344723933779364 2.411723272010489, 1.6689447867558729 4.823446544020978, 2.2956363449022126 6.6346587868081635 M0 0 C0.6628928353821529 1.915838187850142, 1.3257856707643059 3.831676375700284, 2.2956363449022126 6.6346587868081635 M2.2956363449022126 6.6346587868081635 C1.87463883907489 8.018242454348982, 1.4536413332475673 9.4018261218898, 0.3063241559605418 13.17241688789414 M2.2956363449022126 6.6346587868081635 C1.6349673876087956 8.80590865482358, 0.9742984303153785 10.977158522838998, 0.3063241559605418 13.17241688789414" stroke="#000000" stroke-width="2" fill="none"></path></g></g><g><g transform="translate(151.0663886597967 49.8159508324857) rotate(0 -9.963481093909422 5.514035335053649)"><path d="M-8.73813819442942 0 C-9.44627926313615 2.124420234645413, -10.154420331842879 4.248840469290826, -11.188823993389406 7.352047113404872 M-8.73813819442942 0 C-9.318132847422374 1.7399815252272304, -9.898127500415328 3.4799630504544607, -11.188823993389406 7.352047113404872 M-11.188823993389406 7.352047113404872 C-10.324092824521935 8.735617757685477, -9.459361655654467 10.119188401966083, -8.891310555884768 11.028070670107295 M-11.188823993389406 7.352047113404872 C-10.625754071417346 8.252959492610799, -10.062684149445284 9.153871871816726, -8.891310555884768 11.028070670107295" stroke="#000000" stroke-width="2" fill="none"></path></g></g><g transform="translate(168.59243885576683 21.02619314827595) rotate(0 1.435686438237326 1.4356864382373402)"><path d="M1.43568643823734 0 C1.7279195653037611 -0.018329993634549863, 2.1228820362528653 0.13815646940829793, 2.3585278921313013 0.3358868201643479 C2.5941737480097373 0.5336171709203978, 2.796144994593226 0.883441631671023, 2.849561573507955 1.1863821045362999 C2.902978152422684 1.4893225774015768, 2.8328342746020017 1.8871282764434978, 2.679027365619675 2.15352965735601 C2.5252204566373484 2.4199310382685217, 2.2157825544071588 2.679580267902145, 1.926720119613994 2.784790390011372 C1.6376576848208293 2.8900005121205994, 1.2337151916538511 2.8900005121205994, 0.9446527568606862 2.784790390011372 C0.6555903220675213 2.679580267902145, 0.3461524198373318 2.4199310382685217, 0.19234551085500495 2.15352965735601 C0.0385386018726781 1.8871282764434978, -0.031605275948003886 1.4893225774015766, 0.021811302966725066 1.1863821045362997 C0.07522788188145402 0.8834416316710227, 0.2771991284649429 0.5336171709203981, 0.5128449843433787 0.3358868201643481 C0.7484908402218144 0.13815646940829818, 1.281879529255013 0.051195515233266896, 1.4356864382373398 0 C1.5894933472196666 -0.051195515233266896, 1.43568643823734 0.00478562146079109, 1.43568643823734 0.02871372876474676 M1.43568643823734 0 C1.7279195653037611 -0.018329993634549863, 2.1228820362528653 0.13815646940829793, 2.3585278921313013 0.3358868201643479 C2.5941737480097373 0.5336171709203978, 2.796144994593226 0.883441631671023, 2.849561573507955 1.1863821045362999 C2.902978152422684 1.4893225774015768, 2.8328342746020017 1.8871282764434978, 2.679027365619675 2.15352965735601 C2.5252204566373484 2.4199310382685217, 2.2157825544071588 2.679580267902145, 1.926720119613994 2.784790390011372 C1.6376576848208293 2.8900005121205994, 1.2337151916538511 2.8900005121205994, 0.9446527568606862 2.784790390011372 C0.6555903220675213 2.679580267902145, 0.3461524198373318 2.4199310382685217, 0.19234551085500495 2.15352965735601 C0.0385386018726781 1.8871282764434978, -0.031605275948003886 1.4893225774015766, 0.021811302966725066 1.1863821045362997 C0.07522788188145402 0.8834416316710227, 0.2771991284649429 0.5336171709203981, 0.5128449843433787 0.3358868201643481 C0.7484908402218144 0.13815646940829818, 1.281879529255013 0.051195515233266896, 1.4356864382373398 0 C1.5894933472196666 -0.051195515233266896, 1.43568643823734 0.00478562146079109, 1.43568643823734 0.02871372876474676" stroke="none" stroke-width="0" fill="#000"></path><path d="M1.43568643823734 0 C1.7279195653037611 -0.018329993634549863, 2.1228820362528653 0.13815646940829793, 2.3585278921313013 0.3358868201643479 C2.5941737480097373 0.5336171709203978, 2.796144994593226 0.883441631671023, 2.849561573507955 1.1863821045362999 C2.902978152422684 1.4893225774015768, 2.8328342746020017 1.8871282764434978, 2.679027365619675 2.15352965735601 C2.5252204566373484 2.4199310382685217, 2.2157825544071588 2.679580267902145, 1.926720119613994 2.784790390011372 C1.6376576848208293 2.8900005121205994, 1.2337151916538511 2.8900005121205994, 0.9446527568606862 2.784790390011372 C0.6555903220675213 2.679580267902145, 0.3461524198373318 2.4199310382685217, 0.19234551085500495 2.15352965735601 C0.0385386018726781 1.8871282764434978, -0.031605275948003886 1.4893225774015766, 0.021811302966725066 1.1863821045362997 C0.07522788188145402 0.8834416316710227, 0.2771991284649429 0.5336171709203981, 0.5128449843433787 0.3358868201643481 C0.7484908402218144 0.13815646940829818, 1.281879529255013 0.051195515233266896, 1.4356864382373398 0 C1.5894933472196666 -0.051195515233266896, 1.43568643823734 0.00478562146079109, 1.43568643823734 0.02871372876474676 M1.43568643823734 0 C1.7279195653037611 -0.018329993634549863, 2.1228820362528653 0.13815646940829793, 2.3585278921313013 0.3358868201643479 C2.5941737480097373 0.5336171709203978, 2.796144994593226 0.883441631671023, 2.849561573507955 1.1863821045362999 C2.902978152422684 1.4893225774015768, 2.8328342746020017 1.8871282764434978, 2.679027365619675 2.15352965735601 C2.5252204566373484 2.4199310382685217, 2.2157825544071588 2.679580267902145, 1.926720119613994 2.784790390011372 C1.6376576848208293 2.8900005121205994, 1.2337151916538511 2.8900005121205994, 0.9446527568606862 2.784790390011372 C0.6555903220675213 2.679580267902145, 0.3461524198373318 2.4199310382685217, 0.19234551085500495 2.15352965735601 C0.0385386018726781 1.8871282764434978, -0.031605275948003886 1.4893225774015766, 0.021811302966725066 1.1863821045362997 C0.07522788188145402 0.8834416316710227, 0.2771991284649429 0.5336171709203981, 0.5128449843433787 0.3358868201643481 C0.7484908402218144 0.13815646940829818, 1.281879529255013 0.051195515233266896, 1.4356864382373398 0 C1.5894933472196666 -0.051195515233266896, 1.43568643823734 0.00478562146079109, 1.43568643823734 0.02871372876474676" stroke="#000000" stroke-width="2" fill="none"></path></g><g transform="translate(175.52791602718816 21.998035471204133) rotate(0 1.435686438237326 1.4356864382373402)"><path d="M1.43568643823734 0 C1.7279195653037611 -0.018329993634549863, 2.1228820362528653 0.13815646940829793, 2.3585278921313013 0.3358868201643479 C2.5941737480097373 0.5336171709203978, 2.796144994593226 0.883441631671023, 2.849561573507955 1.1863821045362999 C2.902978152422684 1.4893225774015768, 2.8328342746020017 1.8871282764434978, 2.679027365619675 2.15352965735601 C2.5252204566373484 2.4199310382685217, 2.2157825544071588 2.679580267902145, 1.926720119613994 2.784790390011372 C1.6376576848208293 2.8900005121205994, 1.2337151916538511 2.8900005121205994, 0.9446527568606862 2.784790390011372 C0.6555903220675213 2.679580267902145, 0.3461524198373318 2.4199310382685217, 0.19234551085500495 2.15352965735601 C0.0385386018726781 1.8871282764434978, -0.031605275948003886 1.4893225774015766, 0.021811302966725066 1.1863821045362997 C0.07522788188145402 0.8834416316710227, 0.2771991284649429 0.5336171709203981, 0.5128449843433787 0.3358868201643481 C0.7484908402218144 0.13815646940829818, 1.281879529255013 0.051195515233266896, 1.4356864382373398 0 C1.5894933472196666 -0.051195515233266896, 1.43568643823734 0.00478562146079109, 1.43568643823734 0.02871372876474676 M1.43568643823734 0 C1.7279195653037611 -0.018329993634549863, 2.1228820362528653 0.13815646940829793, 2.3585278921313013 0.3358868201643479 C2.5941737480097373 0.5336171709203978, 2.796144994593226 0.883441631671023, 2.849561573507955 1.1863821045362999 C2.902978152422684 1.4893225774015768, 2.8328342746020017 1.8871282764434978, 2.679027365619675 2.15352965735601 C2.5252204566373484 2.4199310382685217, 2.2157825544071588 2.679580267902145, 1.926720119613994 2.784790390011372 C1.6376576848208293 2.8900005121205994, 1.2337151916538511 2.8900005121205994, 0.9446527568606862 2.784790390011372 C0.6555903220675213 2.679580267902145, 0.3461524198373318 2.4199310382685217, 0.19234551085500495 2.15352965735601 C0.0385386018726781 1.8871282764434978, -0.031605275948003886 1.4893225774015766, 0.021811302966725066 1.1863821045362997 C0.07522788188145402 0.8834416316710227, 0.2771991284649429 0.5336171709203981, 0.5128449843433787 0.3358868201643481 C0.7484908402218144 0.13815646940829818, 1.281879529255013 0.051195515233266896, 1.4356864382373398 0 C1.5894933472196666 -0.051195515233266896, 1.43568643823734 0.00478562146079109, 1.43568643823734 0.02871372876474676" stroke="none" stroke-width="0" fill="#000"></path><path d="M1.43568643823734 0 C1.7279195653037611 -0.018329993634549863, 2.1228820362528653 0.13815646940829793, 2.3585278921313013 0.3358868201643479 C2.5941737480097373 0.5336171709203978, 2.796144994593226 0.883441631671023, 2.849561573507955 1.1863821045362999 C2.902978152422684 1.4893225774015768, 2.8328342746020017 1.8871282764434978, 2.679027365619675 2.15352965735601 C2.5252204566373484 2.4199310382685217, 2.2157825544071588 2.679580267902145, 1.926720119613994 2.784790390011372 C1.6376576848208293 2.8900005121205994, 1.2337151916538511 2.8900005121205994, 0.9446527568606862 2.784790390011372 C0.6555903220675213 2.679580267902145, 0.3461524198373318 2.4199310382685217, 0.19234551085500495 2.15352965735601 C0.0385386018726781 1.8871282764434978, -0.031605275948003886 1.4893225774015766, 0.021811302966725066 1.1863821045362997 C0.07522788188145402 0.8834416316710227, 0.2771991284649429 0.5336171709203981, 0.5128449843433787 0.3358868201643481 C0.7484908402218144 0.13815646940829818, 1.281879529255013 0.051195515233266896, 1.4356864382373398 0 C1.5894933472196666 -0.051195515233266896, 1.43568643823734 0.00478562146079109, 1.43568643823734 0.02871372876474676 M1.43568643823734 0 C1.7279195653037611 -0.018329993634549863, 2.1228820362528653 0.13815646940829793, 2.3585278921313013 0.3358868201643479 C2.5941737480097373 0.5336171709203978, 2.796144994593226 0.883441631671023, 2.849561573507955 1.1863821045362999 C2.902978152422684 1.4893225774015768, 2.8328342746020017 1.8871282764434978, 2.679027365619675 2.15352965735601 C2.5252204566373484 2.4199310382685217, 2.2157825544071588 2.679580267902145, 1.926720119613994 2.784790390011372 C1.6376576848208293 2.8900005121205994, 1.2337151916538511 2.8900005121205994, 0.9446527568606862 2.784790390011372 C0.6555903220675213 2.679580267902145, 0.3461524198373318 2.4199310382685217, 0.19234551085500495 2.15352965735601 C0.0385386018726781 1.8871282764434978, -0.031605275948003886 1.4893225774015766, 0.021811302966725066 1.1863821045362997 C0.07522788188145402 0.8834416316710227, 0.2771991284649429 0.5336171709203981, 0.5128449843433787 0.3358868201643481 C0.7484908402218144 0.13815646940829818, 1.281879529255013 0.051195515233266896, 1.4356864382373398 0 C1.5894933472196666 -0.051195515233266896, 1.43568643823734 0.00478562146079109, 1.43568643823734 0.02871372876474676" stroke="#000000" stroke-width="2" fill="none"></path></g><g><g stroke-opacity="0.2" fill-opacity="0.2" transform="translate(103.0168014739142 43.47394660265337) rotate(0 -41.9717338786823 83.87171227551148)"><path d="M-0.8325233127921818 -1.1328317914158106 C-6.311455745494529 0.11485120205974231, -26.19654284323744 0.8547967598264812, -35.03965452199378 7.207420648941138 C-43.882766200750126 13.560044538055795, -53.31526599712488 26.879111380307144, -53.891193385330226 36.98291154327213 C-54.46712077353557 47.08671170623712, -44.91879935597501 58.68487299226314, -38.495218851225864 67.83022162673105 C-32.07163834647672 76.97557026119895, -21.93002576502639 82.61003652347463, -15.349710356835324 91.85500335007958 C-8.769394948644258 101.09997017668454, 1.8746581306942147 111.88917622669081, 0.9866735979205203 123.30002258636073 C0.09868906514682607 134.71086894603064, -5.809166008529962 152.21016308499316, -20.67761755347749 160.32008150809907 C-35.546069098425015 168.42999993120497, -77.41681520685142 169.83385504171312, -88.22403567176465 171.95953312499614 M3.9110112467408182 -4.216108573973179 C-1.647571841549043 -2.42522144539758, -26.643585750987054 5.006596778251271, -36.69322534871795 11.050043846451977 C-46.74286494644885 17.093490914652683, -56.016576614129704 22.10098460674611, -56.38682633964457 32.04457383523106 C-56.75707606515944 41.988163063716016, -45.12961925429724 61.82422774682531, -38.914723701807155 70.71157921736169 C-32.69982814931707 79.59893068789806, -26.29666829407193 76.88851696611283, -19.09745302470406 85.36868265844933 C-11.898237755336186 93.84884835078583, 4.350771385842347 109.41878214886825, 4.280567914400084 121.59257337138072 C4.210364442957821 133.7663645938932, -4.921696581614912 150.0735363680168, -19.518673853357637 158.41142999352417 C-34.115651125100364 166.74932361903154, -71.67173703960664 169.542066115067, -83.30129571605627 171.619935124425" stroke="#000000" stroke-width="2" fill="none"></path></g></g><g><g stroke-opacity="0.2" fill-opacity="0.2" transform="translate(97.56224214774232 44.564858467887746) rotate(1.753269643385621 -40.447085209524346 84.4988760848631)"><path d="M2.232024511322379 -1.9448139574378729 C-3.318394704407617 -0.9023011582702829, -26.817229454522256 -1.2419499026809726, -35.830790572963146 4.679104306855539 C-44.844351691404036 10.60015851639205, -51.906745227796996 23.31850093968537, -51.84934219932296 33.5815112997812 C-51.79193917084893 43.844521659877024, -42.07871194293223 57.07772131381025, -35.48637240211893 66.25716646743048 C-28.894032861305632 75.43661162105072, -18.34869636443732 79.36153235841132, -12.295304954443175 88.65818222150259 C-6.241913544449031 97.95483208459385, 1.7301063600567814 110.89732245384197, 0.8339760578459332 122.037065645978 C-0.06215424436491512 133.17680883811403, -3.5826351951041815 147.34572462745447, -17.672086767708265 155.4966413743188 C-31.76153834031235 163.64755812118315, -72.3255990566769 168.1953067835178, -83.70273337777857 170.94256612716407 M-0.0008292531967164507 3.1711189413070677 C-5.669706235300665 4.6454577700932385, -29.041216522683627 1.771616213239768, -37.91383525592783 7.149212918662766 C-46.78645398917203 12.526809624085764, -53.84343028430955 25.24747135550109, -53.23654165266194 35.43669917384505 C-52.629653021014335 45.62592699218901, -40.74777010274552 59.34462230006943, -34.272503466042174 68.28457982872654 C-27.797236829338832 77.22453735738364, -20.771188647448795 80.51653911144373, -14.384941832441884 89.07644434578769 C-7.998695017434973 97.63634958013165, 5.567748654001737 107.8884934707586, 4.044977423999293 119.64401123479024 C2.5222061939968485 131.39952899882186, -8.686477612329421 151.20840274781423, -23.521569212456548 159.6095509299775 C-38.35666081258368 168.01069911214077, -73.8967178364802 168.45402023099422, -84.96557217676346 170.05090032776982" stroke="#000000" stroke-width="2" fill="none"></path></g></g></svg>